<svg width="88" height="89" viewBox="0 0 88 89" fill="none" xmlns="http://www.w3.org/2000/svg">
<circle cx="84" cy="84.9854" r="4" transform="rotate(90 84 84.9854)" fill="#323B60"/>
<circle cx="64" cy="84.9854" r="4" transform="rotate(90 64 84.9854)" fill="#323B60"/>
<circle cx="64" cy="64.9854" r="4" transform="rotate(90 64 64.9854)" fill="#323B60"/>
<circle cx="44" cy="84.9854" r="4" transform="rotate(90 44 84.9854)" fill="#323B60"/>
<circle cx="44" cy="64.9854" r="4" transform="rotate(90 44 64.9854)" fill="#323B60"/>
<circle cx="44" cy="44.9854" r="4" transform="rotate(90 44 44.9854)" fill="#323B60"/>
<circle cx="24" cy="84.9854" r="4" transform="rotate(90 24 84.9854)" fill="#323B60"/>
<circle cx="24" cy="64.9854" r="4" transform="rotate(90 24 64.9854)" fill="#323B60"/>
<circle cx="24" cy="44.9854" r="4" transform="rotate(90 24 44.9854)" fill="#323B60"/>
<circle cx="24" cy="24.9854" r="4" transform="rotate(90 24 24.9854)" fill="#323B60"/>
<circle cx="4" cy="84.9854" r="4" transform="rotate(90 4 84.9854)" fill="#323B60"/>
<circle cx="4" cy="64.9854" r="4" transform="rotate(90 4 64.9854)" fill="#323B60"/>
<circle cx="4" cy="44.9854" r="4" transform="rotate(90 4 44.9854)" fill="#323B60"/>
<circle cx="4" cy="24.9854" r="4" transform="rotate(90 4 24.9854)" fill="#323B60"/>
<circle cx="4" cy="4.98535" r="4" transform="rotate(90 4 4.98535)" fill="#323B60"/>
</svg>
