<svg width="53" height="53" viewBox="0 0 53 53" fill="none" xmlns="http://www.w3.org/2000/svg">
<g clip-path="url(#clip0_18_175)">
<g clip-path="url(#clip1_18_175)">
<path d="M50.9373 27.2714C50.2582 27.3025 49.576 27.2794 48.8416 27.2794V26.6384C48.8416 23.8856 48.8426 21.1327 48.8416 18.3798C48.8405 17.5259 48.6547 17.335 47.8188 17.334C39.8656 17.333 31.9114 17.333 23.9583 17.334C23.1385 17.335 22.9325 17.548 22.9325 18.3758C22.9315 22.1635 22.9315 25.9502 22.9315 29.7379V30.3247H12.1109V29.751C12.1109 27.4653 12.1109 25.1796 12.1109 22.8939C12.1099 21.9777 11.9562 21.829 11.0198 21.8259C10.7897 21.8249 10.5597 21.8259 10.2784 21.8259V16.477C10.2784 15.3828 10.198 15.2974 9.10186 15.2261C9.07273 15.2241 9.0456 15.196 8.96422 15.1518C8.96422 14.6333 8.96824 14.0868 8.96422 13.5412C8.95819 12.8369 8.704 12.5888 7.98766 12.5818C7.51846 12.5777 7.05027 12.5787 6.58209 12.5818C5.82656 12.5868 5.58744 12.8219 5.58443 13.5633C5.58141 14.1079 5.58342 14.6524 5.58342 15.204C5.45582 15.2221 5.39253 15.2352 5.32823 15.2382C4.40491 15.2804 4.2743 15.416 4.2743 16.3433V21.8259H3.66847C2.51609 21.829 2.42165 21.9244 2.42165 23.0979V28.681C2.11321 28.681 1.86505 28.681 1.61588 28.682C0.84729 28.684 0.58406 28.9794 0.681515 29.7279C1.37174 35.0507 5.32823 39.5417 10.5526 40.888C11.4498 41.1201 12.3802 41.2266 13.2945 41.3914H39.3653C40.1479 41.2577 40.9376 41.1563 41.7112 40.9835C47.0783 39.7839 51.284 35.0769 51.9029 29.6043C51.9159 29.4928 51.9672 29.3863 52.0003 29.2768V27.6753C51.717 27.3528 51.3664 27.2523 50.9373 27.2714ZM36.6275 18.7837H47.3737V24.1629H36.6275V18.7837ZM24.3843 18.7777H35.1365V24.1508H24.3843V18.7777ZM7.00506 14.3912C6.98196 14.0255 7.1628 13.9722 7.52047 14.0908C7.52047 14.3942 7.54157 14.6745 7.50942 14.9488C7.49736 15.0523 7.36173 15.1417 7.28236 15.2372C7.19093 15.1357 7.05028 15.0473 7.01913 14.9297C6.97291 14.7619 7.01612 14.571 7.00506 14.3912ZM6.88651 17.4766C7.11859 17.4626 7.35269 17.4666 7.58578 17.4746C8.0831 17.4917 8.37647 17.7549 8.3825 18.1769C8.38853 18.618 8.12429 18.8621 7.60587 18.8902C7.49033 18.8963 7.37278 18.8912 7.25624 18.8912V18.8862C7.12362 18.8862 6.98999 18.8942 6.85737 18.8852C6.42837 18.8571 6.1772 18.6381 6.16213 18.197C6.14806 17.7891 6.4344 17.5048 6.88651 17.4766ZM8.72611 25.8437C8.22677 25.8588 7.72744 25.8467 7.22811 25.8467C6.76193 25.8467 6.29575 25.8578 5.83058 25.8437C5.29708 25.8287 4.98362 25.5544 4.97859 25.1294C4.97458 24.7004 5.28603 24.414 5.81651 24.408C6.78102 24.396 7.74653 24.397 8.71204 24.407C9.2385 24.413 9.56603 24.6984 9.57005 25.1153C9.57407 25.5323 9.24553 25.8276 8.72611 25.8437ZM14.485 33.1921C14.4509 33.618 14.2007 33.8632 13.7697 33.8742C13.2352 33.8883 12.7007 33.8783 12.1662 33.8783C11.6658 33.8783 11.1645 33.8883 10.6642 33.8753C10.2181 33.8652 9.90562 33.5688 9.90059 33.181C9.89657 32.7912 10.205 32.4858 10.6501 32.4817C11.6859 32.4717 12.7208 32.4707 13.7566 32.4817C14.2047 32.4868 14.5162 32.7942 14.485 33.1921ZM19.824 33.8742C18.7901 33.8863 17.7553 33.8863 16.7215 33.8742C16.2643 33.8692 15.99 33.5779 15.9961 33.1619C16.0021 32.7379 16.2643 32.4908 16.7466 32.4807C17.264 32.4697 17.7814 32.4777 18.2988 32.4777C18.8163 32.4777 19.2995 32.4697 19.7999 32.4797C20.261 32.4888 20.5554 32.7621 20.5624 33.1629C20.5684 33.5648 20.2751 33.8692 19.824 33.8742ZM25.8973 33.8742C24.8625 33.8863 23.8277 33.8863 22.7928 33.8742C22.3508 33.8692 22.0423 33.5497 22.0514 33.1599C22.0604 32.7701 22.3689 32.4888 22.822 32.4797C23.3394 32.4697 23.8568 32.4777 24.3742 32.4777C24.8916 32.4777 25.3759 32.4697 25.8762 32.4807C26.3525 32.4908 26.6227 32.747 26.6288 33.1639C26.6338 33.5738 26.3505 33.8692 25.8973 33.8742ZM31.9335 33.8763C30.9158 33.8853 29.897 33.8863 28.8793 33.8742C28.4242 33.8692 28.1368 33.5759 28.1388 33.169C28.1418 32.755 28.4181 32.4908 28.8883 32.4807C29.4057 32.4697 29.9232 32.4777 30.4416 32.4777C30.96 32.4777 31.4433 32.4707 31.9436 32.4797C32.3957 32.4878 32.7102 32.7691 32.7222 33.1549C32.7343 33.5568 32.4068 33.8722 31.9335 33.8763ZM35.1315 28.3313C35.027 28.9995 34.6322 29.6234 34.3448 30.2584C34.3157 30.3237 34.1459 30.3548 34.0414 30.3548C30.8846 30.3588 27.7279 30.3558 24.5701 30.3528C24.5229 30.3528 24.4757 30.3317 24.3913 30.3116V25.6528H35.1646C35.1646 26.5721 35.2671 27.4703 35.1315 28.3313ZM39.6104 33.8783C38.6308 33.8712 37.8341 33.0705 37.8291 32.0899C37.8251 31.0742 38.6148 30.2805 39.6295 30.2805C40.6443 30.2805 41.4581 31.0892 41.45 32.0829C41.442 33.0735 40.6111 33.8853 39.6104 33.8783ZM43.7417 33.8783C42.7461 33.8863 41.9061 33.0635 41.9061 32.0809C41.9061 31.0983 42.7049 30.2925 43.6794 30.2805C44.7022 30.2674 45.514 31.037 45.5381 32.0427C45.5612 33.0273 44.7374 33.8692 43.7417 33.8783ZM47.3807 27.2513H36.6255V25.6579H47.3807V27.2513Z" fill="#323B60"/>
<path d="M39.6014 31.5029C39.7933 31.7672 39.9842 31.9149 39.9751 32.0495C39.9651 32.1932 39.7672 32.3228 39.6506 32.4594C39.52 32.3378 39.306 32.2293 39.2829 32.0907C39.2608 31.956 39.4366 31.7893 39.6014 31.5039V31.5029Z" fill="#323B60"/>
<path d="M44.2712 32.046C44.0201 32.243 43.8744 32.4439 43.7458 32.4339C43.6092 32.4238 43.3901 32.2168 43.3851 32.0902C43.3801 31.9586 43.575 31.7346 43.7116 31.7095C43.8372 31.6864 44.002 31.8732 44.2712 32.046Z" fill="#323B60"/>
</g>
</g>
<defs>
<clipPath id="clip0_18_175">
<rect width="51.995" height="51.995" fill="white" transform="translate(0.333496 0.987793)"/>
</clipPath>
<clipPath id="clip1_18_175">
<rect width="51.3379" height="28.8123" fill="white" transform="translate(0.662109 12.5791)"/>
</clipPath>
</defs>
</svg>
