<svg width="53" height="52" viewBox="0 0 53 52" fill="none" xmlns="http://www.w3.org/2000/svg">
<g clip-path="url(#clip0_18_263)">
<path d="M44.0187 27.6859C44.0187 26.3703 44.1391 25.1665 44.0015 23.9971C43.4856 19.6119 41.5939 15.8973 38.3093 12.9308C35.3686 10.2738 31.9034 8.79488 27.9566 8.43374C26.2111 8.27896 24.4914 8.43374 22.7803 8.76908C22.1268 8.89806 21.7313 8.70889 21.6367 8.20158C21.5421 7.73726 21.8344 7.39331 22.4707 7.26434C27.2171 6.2927 31.7486 6.92899 35.9447 9.34519C41.2242 12.3891 44.3799 16.9807 45.4031 22.9739C45.6438 24.3583 45.5579 25.8028 45.6266 27.2216C45.6266 27.299 45.6266 27.3678 45.6438 27.6171C45.9018 27.3248 46.0652 27.1184 46.2457 26.9464C46.6069 26.5939 47.011 26.5767 47.3378 26.869C47.6731 27.1786 47.6903 27.6257 47.3378 28.004C46.5811 28.8037 45.8158 29.6034 45.0247 30.3858C44.6206 30.7814 44.1219 30.7298 43.8123 30.2569C43.2019 29.3196 42.6086 28.3652 42.0324 27.4107C41.7917 27.0152 41.9035 26.5939 42.2474 26.3703C42.6086 26.1382 43.0557 26.2241 43.3222 26.6111C43.5458 26.9292 43.7436 27.2646 44.0101 27.6859H44.0187Z" fill="#323B60"/>
<path d="M7.36309 24.3922C7.06214 24.7104 6.88157 24.9254 6.6752 25.1145C6.34846 25.4069 5.95293 25.3897 5.65198 25.1145C5.35963 24.8394 5.29084 24.4008 5.57459 24.0913C6.38285 23.2228 7.19972 22.3716 8.05097 21.5461C8.39491 21.2108 8.88503 21.2882 9.16019 21.7095C9.77928 22.6553 10.3812 23.627 10.9659 24.5986C11.198 24.9855 11.0777 25.4155 10.7337 25.639C10.3726 25.8712 9.93405 25.768 9.6589 25.3811C9.44394 25.0715 9.25477 24.7448 9.057 24.4266C9.01401 24.4266 8.96242 24.4266 8.91943 24.4266C8.91083 25.2263 8.85064 26.026 8.89363 26.8256C9.1 30.5918 10.3296 33.9882 12.6942 36.9289C15.6349 40.6005 19.4612 42.7588 24.1217 43.4466C26.2111 43.7562 28.2748 43.6444 30.3298 43.1887C30.8629 43.0683 31.2499 43.2833 31.3616 43.739C31.4734 44.1861 31.2241 44.5473 30.6652 44.6762C26.2197 45.6565 21.929 45.1578 17.8877 43.0683C12.1353 40.1018 8.71306 35.3554 7.59525 28.9925C7.36309 27.6683 7.43188 26.2925 7.36309 24.934C7.36309 24.7964 7.36309 24.6588 7.36309 24.3836V24.3922Z" fill="#323B60"/>
<path d="M35.9532 35.4585C35.9532 35.4585 35.9532 35.4585 35.9532 35.4671C35.9532 35.4671 35.9532 35.4671 35.9704 35.4671C35.9704 35.4671 35.9704 35.4671 35.9704 35.4585C35.9704 35.4585 35.9704 35.4585 35.9618 35.4585H35.9532Z" fill="#323B60"/>
<path d="M49.9174 39.3966C49.2295 34.4095 44.5605 30.9614 39.6163 31.8041C35.6438 32.4748 32.6171 35.6992 32.2215 39.8094C31.8346 43.8679 34.2508 47.4793 37.7934 48.855C38.5157 49.1388 39.2895 49.2936 40.0462 49.4999H42.1357C42.2217 49.4655 42.3076 49.4225 42.3936 49.4053C47.1916 48.7347 50.5794 44.229 49.9174 39.3966ZM34.9215 41.3571C34.9215 41.3571 34.9215 41.3743 34.9215 41.3829C34.7237 41.3571 34.5002 41.3829 34.3196 41.3055C33.9756 41.1679 33.8123 40.8842 33.8639 40.5144C33.9155 40.1447 34.139 39.9125 34.5088 39.8609C34.7581 39.8266 35.0075 39.8437 35.2654 39.8523C35.7555 39.8695 36.0565 40.1533 36.0737 40.5918C36.0823 41.0561 35.7813 41.3485 35.2654 41.3657C35.1536 41.3657 35.0419 41.3657 34.9387 41.3657L34.9215 41.3571ZM36.3832 45.9487C36.2715 45.8713 35.9791 45.7596 35.8845 45.5618C35.7813 45.3382 35.7813 44.9857 35.8931 44.7793C36.0565 44.487 36.323 44.2118 36.6154 44.057C36.8218 43.9453 37.1915 43.9539 37.3893 44.0656C37.5784 44.1688 37.716 44.487 37.7418 44.7191C37.7848 45.1577 36.9593 45.9315 36.3746 45.9487H36.3832ZM36.8648 37.2298C36.4434 36.9976 36.0909 36.5849 35.8071 36.1808C35.7899 36.155 35.7813 36.1206 35.7813 36.0776C35.7813 36.069 35.7813 36.0604 35.7813 36.0432C35.7813 36.026 35.7813 36.0174 35.7813 36.0002C35.7813 36.0002 35.7813 35.983 35.7813 35.9744V35.9572C35.7813 35.9486 35.7813 35.94 35.7813 35.9228C35.7813 35.9142 35.7813 35.897 35.7899 35.8884C35.7899 35.8626 35.8071 35.8454 35.8071 35.8196C35.8071 35.8024 35.8071 35.7938 35.8243 35.7766C35.8673 35.6649 35.9103 35.5531 35.9361 35.4499C35.9361 35.4499 35.9361 35.4499 35.9189 35.4499C35.9189 35.4499 35.9189 35.4499 35.9189 35.4413C35.9189 35.4413 35.9189 35.4413 35.9275 35.4413C35.9275 35.4413 35.9275 35.4413 35.9275 35.4499C35.9533 35.4327 35.9877 35.4241 36.0135 35.4069C36.0221 35.4069 36.0307 35.3983 36.0479 35.3983C36.0651 35.3897 36.0909 35.3811 36.1167 35.3725C36.1339 35.3725 36.1511 35.3725 36.1683 35.3639C36.1855 35.3639 36.2027 35.3639 36.2285 35.3553C36.2457 35.3553 36.2715 35.3553 36.2887 35.3553C36.3316 35.3553 36.366 35.3553 36.409 35.3553C36.4348 35.3553 36.452 35.3553 36.4778 35.3553C36.5036 35.3553 36.538 35.3553 36.5638 35.3553C36.581 35.3553 36.5982 35.3553 36.6154 35.3553C36.6412 35.3553 36.6584 35.3553 36.6842 35.3725C36.7014 35.3725 36.7186 35.3725 36.7444 35.3897C36.7702 35.3897 36.796 35.4069 36.8218 35.4069C36.8476 35.4069 36.8648 35.4241 36.8905 35.4327C36.9077 35.4327 36.9163 35.4413 36.9335 35.4499C36.9593 35.4585 36.9851 35.4671 37.0023 35.4843C37.0281 35.5015 37.0625 35.5101 37.0883 35.5273C37.1055 35.5359 37.1313 35.5531 37.1485 35.5617C37.1657 35.5703 37.1915 35.5875 37.2087 35.6047C37.2259 35.6133 37.2431 35.6305 37.2603 35.6391C37.3119 35.6735 37.3549 35.7164 37.3979 35.7594C37.4065 35.7594 37.4151 35.7766 37.4237 35.7852C37.4924 35.854 37.5526 35.9228 37.5956 36.0088C37.5956 36.0174 37.6042 36.026 37.6128 36.0346C37.6558 36.1034 37.6816 36.1722 37.7074 36.2496C37.7074 36.2668 37.716 36.2839 37.7246 36.3097C37.7246 36.3355 37.7332 36.3613 37.7418 36.3957C37.7418 36.4129 37.7418 36.4301 37.7418 36.4559C37.7848 36.9546 37.2689 37.4705 36.839 37.2384L36.8648 37.2298ZM40.3386 34.4611C40.3386 34.3063 40.3214 34.1429 40.3386 33.9881C40.3902 33.6184 40.7255 33.3346 41.1038 33.3604C41.5166 33.3862 41.7831 33.6012 41.8347 34.0225C41.8605 34.2719 41.8519 34.5298 41.8347 34.7792C41.8175 35.2693 41.5338 35.5703 41.0866 35.5703C40.6481 35.5703 40.3472 35.2693 40.3214 34.7878C40.3214 34.676 40.3214 34.5642 40.3214 34.4611H40.3386ZM41.8519 47.0407C41.8347 47.5137 41.5338 47.8404 41.1124 47.849C40.6911 47.849 40.3644 47.5223 40.3472 47.0579C40.3472 46.9462 40.3472 46.8344 40.3472 46.7226C40.3472 46.5678 40.3214 46.4044 40.3472 46.2497C40.4246 45.8455 40.6825 45.6134 41.1038 45.622C41.5166 45.622 41.7831 45.8627 41.8347 46.2755C41.8691 46.5248 41.8519 46.7828 41.8347 47.0321L41.8519 47.0407ZM43.821 42.1482C43.5974 42.5437 43.1503 42.6555 42.6774 42.3889C42.0497 42.0364 41.422 41.6666 40.7943 41.3055C40.4761 41.1249 40.3214 40.867 40.33 40.4886C40.3386 39.9985 40.33 39.5084 40.33 39.0269C40.33 38.5454 40.33 38.0467 40.33 37.5651C40.33 37.0922 40.6481 36.7569 41.0694 36.7483C41.508 36.7397 41.8347 37.075 41.8433 37.5823C41.8433 38.3218 41.8261 39.0613 41.8605 39.8008C41.8605 39.9727 42.0067 40.2049 42.1529 40.3081C42.5484 40.5832 42.9869 40.8068 43.4082 41.0561C43.8898 41.3485 44.0445 41.7526 43.8124 42.1482H43.821ZM44.5691 36.0776C44.8614 35.725 45.128 35.2951 45.8158 35.2435C45.9448 35.3467 46.2458 35.4757 46.3404 35.6906C46.4349 35.9056 46.3834 36.2496 46.2716 36.4731C46.1426 36.7225 45.8846 36.9288 45.6525 37.1094C45.3257 37.3674 44.9646 37.3416 44.6636 37.0578C44.3627 36.7655 44.3025 36.3957 44.5777 36.0776H44.5691ZM45.3429 45.8541C45.0076 45.6392 44.7066 45.321 44.5003 44.9857C44.2165 44.53 44.6378 43.9281 45.1796 43.9281C45.6353 43.9281 46.4349 44.7191 46.4435 45.1835C46.4435 45.751 45.8244 46.1637 45.3429 45.8627V45.8541ZM47.5356 41.3571C47.312 41.3571 47.097 41.3657 46.8735 41.3571C46.4263 41.3313 46.1254 41.0303 46.1254 40.6176C46.1254 40.1791 46.4349 39.8781 46.9079 39.8523C47.0196 39.8523 47.1314 39.8523 47.2346 39.8523C47.3292 39.8523 47.4238 39.8523 47.5184 39.8523C48.0171 39.8695 48.361 40.1877 48.3524 40.6262C48.3438 41.0475 48.0171 41.3485 47.5356 41.3657V41.3571Z" fill="#323B60"/>
<path d="M35.9446 35.4674L35.9618 35.4502C35.9618 35.4502 35.9618 35.4502 35.9618 35.4588C35.9618 35.4588 35.9618 35.4588 35.9446 35.4588V35.4674Z" fill="#323B60"/>
<path d="M20.7252 10.2479C20.2007 6.12924 16.8129 2.87039 12.677 2.51785C8.34329 2.14811 4.35357 4.96844 3.27875 9.18173C3.17556 9.57726 3.08958 9.9728 2.995 10.3683V12.4492C3.02939 12.5352 3.07238 12.6212 3.08958 12.7071C3.65708 16.7914 7.16529 20.0417 11.2668 20.2997C16.9161 20.6608 21.4303 15.8542 20.7252 10.2479ZM15.2737 13.6272C15.2307 14.659 14.646 15.3469 13.7346 15.7768C13.5884 15.8456 13.4508 15.923 13.2961 15.9488C12.8747 16.0262 12.591 16.1552 12.634 16.6883C12.6598 17.058 12.2556 17.3246 11.8773 17.3074C11.4904 17.2988 11.1464 17.015 11.1636 16.6281C11.1894 16.181 10.983 16.0606 10.6133 15.9402C9.57289 15.5962 8.85921 14.9084 8.56686 13.8249C8.44648 13.395 8.64424 13.0081 9.03118 12.8705C9.41811 12.7329 9.81365 12.9135 9.99422 13.3262C10.5789 14.616 12.0579 15.0631 13.2531 14.2807C13.4852 14.1259 13.6314 13.8335 13.8206 13.61C13.7346 13.0425 13.4852 12.6985 13.0553 12.5352C12.548 12.3374 12.0063 12.2256 11.4732 12.0708C11.155 11.9763 10.8283 11.9075 10.5273 11.7871C9.35792 11.3142 8.75602 10.4715 8.77322 9.3451C8.79042 8.26168 9.4955 7.28145 10.6047 6.88591C10.983 6.75694 11.1636 6.61936 11.1464 6.18083C11.1206 5.7767 11.4904 5.48435 11.8859 5.48435C12.2814 5.48435 12.6426 5.7853 12.6254 6.18943C12.6082 6.59356 12.7629 6.74834 13.1327 6.86872C13.941 7.11808 14.5085 7.67698 14.8868 8.42506C15.1447 8.94097 15.033 9.38809 14.603 9.60306C14.1903 9.80942 13.812 9.64605 13.5282 9.13874C12.9865 8.1757 11.8343 7.86615 10.8885 8.42506C10.5015 8.65722 10.2952 8.99256 10.3038 9.43109C10.3124 9.85242 10.5703 10.1448 10.9487 10.2823C11.3614 10.4285 11.7999 10.5059 12.2126 10.6435C12.7973 10.8327 13.3992 10.9788 13.9324 11.2626C14.8438 11.7527 15.2823 12.5868 15.2479 13.61L15.2737 13.6272Z" fill="#323B60"/>
<path d="M36.2629 27.0838C36.2457 26.4046 36.2629 25.7253 36.2629 25.046C36.2629 24.3495 36.1769 24.1775 35.5148 23.9712C34.9043 23.7906 34.6033 23.4381 34.3454 22.8448C34.0444 22.1483 33.9671 21.5722 34.3712 20.9101C34.6119 20.5317 34.5002 20.162 34.1734 19.8439C33.6919 19.3881 33.2362 18.9066 32.7633 18.4423C32.2559 17.935 32.0582 17.8748 31.4305 18.2015C30.8888 18.4853 30.433 18.4681 29.8483 18.2359C29.1261 17.9522 28.6531 17.591 28.4726 16.8258C28.378 16.413 28.0684 16.2239 27.6213 16.2325C26.9076 16.2497 26.2026 16.2583 25.4889 16.2325C24.9644 16.2153 24.629 16.413 24.5086 16.9118C24.3453 17.5824 23.9411 17.9092 23.2962 18.1757C22.6256 18.4595 22.0753 18.5111 21.4562 18.1413C21.0606 17.9006 20.6823 17.9866 20.3469 18.3391C19.8912 18.8206 19.4097 19.2764 18.9454 19.7493C18.4467 20.248 18.3779 20.4458 18.7132 21.0821C19.0056 21.6324 18.9626 22.0881 18.739 22.6642C18.4553 23.3779 18.0941 23.8594 17.3289 24.04C16.9161 24.1345 16.7356 24.4527 16.7442 24.8998C16.7613 25.6049 16.7699 26.3186 16.7442 27.0323C16.727 27.5568 16.9333 27.8749 17.432 28.0125C18.0511 28.1845 18.4209 28.5284 18.6788 29.1819C18.9454 29.8698 19.04 30.4287 18.6444 31.065C18.4037 31.4605 18.5069 31.8388 18.8508 32.1742C19.3237 32.6213 19.7708 33.0856 20.2266 33.5414C20.7597 34.0745 20.9402 34.1261 21.5937 33.7907C22.1182 33.5242 22.5568 33.5242 23.1329 33.7563C23.8638 34.0487 24.3711 34.4012 24.543 35.2009C24.629 35.6136 24.973 35.7942 25.4115 35.777C25.7726 35.7598 26.1338 35.777 26.5035 35.777H27.4064C28.1716 35.777 28.335 35.7082 28.55 34.9945C28.7305 34.3926 29.0831 34.1089 29.6592 33.8681C30.3471 33.5758 30.9318 33.464 31.5939 33.8853C31.9636 34.1261 32.3419 34.0315 32.6601 33.6961C33.1416 33.1974 33.6231 32.6987 34.139 32.2258C34.5346 31.856 34.6119 31.4519 34.354 30.9962C34.0272 30.4373 34.0358 29.9558 34.2938 29.3281C34.5861 28.623 34.9387 28.1673 35.6782 27.9867C36.1167 27.8835 36.2973 27.5568 36.2801 27.0924L36.2629 27.0838ZM26.5121 31.3917C23.5542 31.3917 21.1122 28.9669 21.1122 26.009C21.1122 23.0511 23.537 20.6091 26.4949 20.6091C29.4528 20.6091 31.8948 23.0339 31.8948 25.9918C31.8948 28.9411 29.4614 31.3917 26.5121 31.3917Z" fill="#323B60"/>
<path d="M26.5034 29.8526C24.3968 29.8612 22.6513 28.1243 22.6341 26.009C22.6255 23.9024 24.3624 22.1569 26.4776 22.1397C28.5843 22.1311 30.3298 23.868 30.347 25.9832C30.3556 28.0899 28.6187 29.8354 26.5034 29.8526Z" fill="#323B60"/>
</g>
<defs>
<clipPath id="clip0_18_263">
<rect width="47.005" height="47.015" fill="white" transform="translate(2.995 2.48535)"/>
</clipPath>
</defs>
</svg>
