<svg width="53" height="52" viewBox="0 0 53 52" fill="none" xmlns="http://www.w3.org/2000/svg">
<g clip-path="url(#clip0_18_283)">
<path d="M45.2922 27.5565C44.6737 28.1289 43.9167 28.2027 43.1506 27.8427C42.9752 27.7596 42.6982 27.7596 42.5044 27.8242C41.5536 28.1658 40.6212 28.5535 39.6797 28.9135C39.4212 29.015 39.255 29.1166 39.1812 29.4212C38.9873 30.2612 38.295 30.7782 37.4273 30.7874C36.7811 30.7966 36.1349 30.7874 35.4887 30.7874C34.5933 30.7782 33.9102 30.2705 33.6887 29.4028C33.6148 29.1166 33.4856 29.0243 33.2363 28.932C32.2763 28.5627 31.344 28.1473 30.3839 27.7688C30.2178 27.7042 29.9778 27.695 29.8301 27.7688C28.8977 28.2304 28.1962 28.1473 27.4484 27.4088C27.0146 26.9842 26.5807 26.5503 26.1561 26.1072C25.5561 25.4795 25.473 24.7226 25.833 23.9287C25.9161 23.7441 25.9345 23.4579 25.8607 23.2641C25.4822 22.2579 25.076 21.2517 24.6606 20.264C24.6145 20.1439 24.4576 20.0332 24.3283 19.9963C23.3591 19.7009 22.8698 19.0916 22.8606 18.0946C22.8513 17.5039 22.8513 16.9038 22.8606 16.313C22.879 15.353 23.4052 14.7068 24.3099 14.4391C24.4483 14.4022 24.6145 14.273 24.6606 14.1437C25.0668 13.1837 25.4638 12.2144 25.8238 11.2359C25.8976 11.0421 25.8976 10.7836 25.833 10.5713C25.6576 10.5898 25.4822 10.5898 25.3068 10.5898C24.4483 10.5898 23.516 10.5898 22.5467 10.5898C17.2665 10.5898 10.6386 10.5898 5.97688 10.5898C4.87838 10.5898 4.67529 10.8021 4.67529 11.919V36.243C4.67529 37.2677 4.9153 37.5077 5.93995 37.5077H44.7014C45.7076 37.5077 45.9291 37.2861 45.9291 36.2799V34.1475C45.9291 32.1813 45.9291 29.3843 45.9291 26.938C45.726 27.1411 45.5137 27.3442 45.3014 27.5473L45.2922 27.5565ZM11.5248 32.2921C11.7094 32.4952 11.9033 32.8183 11.8756 33.0583C11.8479 33.3167 11.6079 33.6491 11.3678 33.7598C11.1555 33.8614 10.7309 33.8152 10.5555 33.6583C9.53086 32.689 8.52467 31.6921 7.5554 30.6674C7.26923 30.3628 7.29693 29.9289 7.60155 29.6151C8.55236 28.6458 9.51239 27.6765 10.4817 26.7257C10.8324 26.3842 11.3402 26.4211 11.654 26.7534C11.9956 27.1042 11.9956 27.5658 11.6079 27.9627C10.9063 28.6827 10.1678 29.3843 9.39239 30.1505C10.1493 30.8982 10.8509 31.5721 11.5155 32.2829L11.5248 32.2921ZM17.4973 27.695C17.0634 29.4581 16.6296 31.212 16.1957 32.9752C16.1588 33.1137 16.1311 33.2521 16.0573 33.3721C15.8357 33.7783 15.4849 33.9445 15.0418 33.7968C14.608 33.6583 14.3587 33.2983 14.4695 32.8552C14.9311 30.9443 15.4111 29.0335 15.9096 27.1227C16.0296 26.6796 16.3619 26.4673 16.8234 26.5042C17.2296 26.5411 17.5527 26.9196 17.5712 27.3811C17.5527 27.4458 17.525 27.5658 17.4973 27.6858V27.695ZM24.4206 30.732C23.4698 31.7105 22.5098 32.6706 21.5405 33.6214C21.1897 33.9629 20.682 33.926 20.3682 33.5937C20.0266 33.2429 20.0266 32.7813 20.4143 32.3844C21.1251 31.6644 21.8544 30.9628 22.6483 30.1782C21.8913 29.4304 21.1713 28.7658 20.5066 28.055C20.3128 27.8427 20.1374 27.5104 20.1466 27.2427C20.1743 26.5965 21.0051 26.2457 21.4759 26.698C22.4913 27.6488 23.4698 28.6458 24.4391 29.652C24.753 29.9843 24.7345 30.4089 24.4206 30.7413V30.732Z" fill="white"/>
<path d="M47.6275 22.1747C47.6275 22.0547 47.6275 21.9439 47.6183 21.8239C47.6183 21.7963 47.6183 21.7778 47.6183 21.7501C47.5629 21.2978 47.2767 21.0578 46.8521 21.0208C46.4459 20.9839 46.1413 21.187 46.0121 21.5839C45.9567 21.7593 45.9475 21.9624 45.9475 22.147C45.9475 22.9409 45.9475 24.8056 45.9475 26.938C45.9475 29.375 45.9475 32.172 45.9475 34.1475V36.2799C45.9475 37.286 45.7259 37.5076 44.7197 37.5076H5.93984C4.91519 37.5076 4.67518 37.2676 4.67518 36.2429V11.9282C4.67518 10.8205 4.88749 10.5989 5.97677 10.5989C10.6385 10.5989 17.2756 10.5989 22.5466 10.5989C23.5251 10.5989 24.4482 10.5989 25.3067 10.5989C25.4821 10.5989 25.6575 10.5989 25.8329 10.5805C25.8883 10.5805 25.9344 10.5712 25.9898 10.562C26.4052 10.4974 26.636 10.2204 26.6729 9.81427C26.7006 9.4081 26.516 9.09424 26.119 8.96501C25.999 8.92808 25.879 8.90962 25.759 8.90039C25.676 8.90039 25.5929 8.90039 25.5098 8.90039C22.3897 8.90039 18.4388 8.90039 14.5617 8.90039C11.4047 8.90039 8.29377 8.90039 5.74599 8.90039C5.53367 8.90039 5.32136 8.90962 5.11827 8.94655C3.99208 9.13117 3.37359 9.87889 2.99512 10.8758V37.3045C3.10589 37.5168 3.1982 37.7291 3.31821 37.9322C3.86284 38.8369 4.68441 39.2061 5.73676 39.2061C10.86 39.1969 15.9741 39.2061 21.0973 39.2061H21.845C21.7712 40.6 21.6973 41.9293 21.6235 43.2586C21.5958 43.7109 21.3558 43.794 20.9404 43.8217C18.0603 44.0063 15.2079 44.394 12.457 45.2894C11.4693 45.6125 10.5 46.0371 9.56767 46.5079C8.55225 47.0156 8.54301 47.7264 9.49382 48.3172H9.80768C11.7462 47.0895 13.9155 46.5356 16.131 46.1202C20.5896 45.2802 25.0944 45.2063 29.5992 45.5017C32.6639 45.7048 35.7102 46.1018 38.5995 47.2649C39.3749 47.5787 40.1134 47.9664 40.8611 48.3172H41.175C42.0519 47.6434 42.0242 47.0433 41.0273 46.5079C40.3811 46.1664 39.7165 45.8525 39.0334 45.594C35.9963 44.4771 32.8208 44.0248 29.6084 43.8217C29.1838 43.794 29.0176 43.6555 28.9899 43.2494C28.9438 42.6401 28.8422 42.0308 28.8145 41.4216C28.7776 40.6923 28.8145 39.9723 28.8145 39.1969H29.5161C34.6209 39.1969 39.7257 39.1969 44.8305 39.1969C46.6213 39.1969 47.6091 38.2092 47.6183 36.3999C47.6183 36.1506 47.6183 35.7998 47.6183 35.3752C47.6183 34.646 47.6183 33.6951 47.6183 32.6336C47.6183 28.8488 47.6183 23.6609 47.6183 22.1655L47.6275 22.1747ZM23.4143 43.6371V39.2338H27.0791C27.1437 40.6739 27.2083 42.1324 27.2729 43.6371H23.4143Z" fill="white"/>
<path d="M47.3507 9.50944C47.24 9.88792 47.2215 10.1925 47.0738 10.4049C46.8338 10.7556 46.9353 11.0418 47.0738 11.3649C47.4615 12.2972 47.8215 13.2388 48.2092 14.1712C48.2554 14.2912 48.3938 14.4112 48.5138 14.4481C49.5385 14.7527 49.9908 15.3343 49.9908 16.3866C49.9908 16.9959 49.9908 17.6051 49.9908 18.2236C49.9908 19.0913 49.4646 19.7929 48.6338 19.9868C48.3569 20.0514 48.2554 20.1714 48.1631 20.4391C47.803 21.3991 47.3784 22.3407 47.0092 23.2915C46.9353 23.4853 46.9538 23.7623 47.0461 23.9469C47.4061 24.6946 47.3415 25.4793 46.7692 26.0885C46.2891 26.5962 45.7999 27.0947 45.283 27.5747C44.6645 28.1471 43.9075 28.2209 43.1413 27.8609C42.9567 27.7778 42.689 27.7778 42.4952 27.8517C41.5444 28.1932 40.612 28.5809 39.6704 28.9317C39.412 29.0332 39.2458 29.1348 39.172 29.4394C38.9781 30.2794 38.2858 30.7964 37.418 30.8056C36.7719 30.8148 36.1257 30.8056 35.4795 30.8056C34.5841 30.7964 33.901 30.2887 33.6795 29.4209C33.6056 29.1348 33.4764 29.0425 33.2271 28.9502C32.2671 28.5809 31.3347 28.1655 30.3747 27.787C30.2086 27.7224 29.9685 27.7132 29.8116 27.787C28.8793 28.2486 28.1777 28.1655 27.43 27.427C26.9961 27.0024 26.5623 26.5685 26.1376 26.1254C25.5376 25.4977 25.4545 24.7408 25.8145 23.9469C25.8976 23.753 25.9161 23.4761 25.8422 23.2823C25.4638 22.2761 25.0576 21.2791 24.6422 20.2821C24.596 20.1621 24.4391 20.0514 24.3099 20.0144C23.3406 19.719 22.8514 19.1098 22.8421 18.1128C22.8329 17.522 22.8329 16.922 22.8421 16.3312C22.8606 15.3712 23.3868 14.725 24.3006 14.4573C24.4391 14.4204 24.6053 14.2912 24.6514 14.1619C25.0576 13.2019 25.4545 12.2326 25.8145 11.2541C25.8976 11.0326 25.8884 10.7095 25.7869 10.4972C25.4545 9.74945 25.5376 8.96481 26.1099 8.36478C26.5807 7.87554 27.0607 7.38629 27.5592 6.92473C28.1777 6.33394 28.9716 6.26932 29.7378 6.65703C29.9132 6.74934 30.1993 6.75857 30.3839 6.68472C31.344 6.32471 32.2856 5.92777 33.2271 5.5216C33.3933 5.44775 33.5779 5.26313 33.6333 5.08774C33.9195 4.21078 34.5656 3.69384 35.498 3.67538C36.1257 3.66615 36.7534 3.66615 37.3811 3.67538C38.2858 3.69384 38.9227 4.22002 39.1904 5.06928C39.2458 5.2539 39.4581 5.45698 39.6427 5.53083C40.5843 5.92777 41.5444 6.30625 42.5136 6.65703C42.689 6.72165 42.9475 6.72165 43.1229 6.63857C43.8891 6.26932 44.646 6.33394 45.2645 6.90627C45.7907 7.39552 46.3168 7.88477 46.7692 8.43863C47.0369 8.75249 47.1661 9.18635 47.3323 9.51867L47.3507 9.50944ZM45.643 9.56483C45.1722 9.12173 44.7568 8.6971 44.2952 8.31863C44.1845 8.22632 43.9075 8.19862 43.7783 8.27247C43.1044 8.65095 42.4767 8.58633 41.7844 8.25401C40.8889 7.82015 39.9751 7.43244 39.0427 7.10935C38.3042 6.85088 37.7965 6.46318 37.5842 5.68776C37.5473 5.5493 37.3165 5.38314 37.1688 5.36467C36.6796 5.32775 36.1903 5.32775 35.7011 5.36467C35.5534 5.3739 35.3411 5.5493 35.3041 5.68776C35.0918 6.39856 34.6395 6.82319 33.9379 7.08166C32.9594 7.44167 31.9902 7.82938 31.0486 8.27247C30.3747 8.58633 29.7655 8.63249 29.1008 8.27247C28.9716 8.19862 28.6947 8.21709 28.5839 8.31863C28.1962 8.64172 27.8454 9.01096 27.5131 9.38944C27.4208 9.49098 27.3931 9.74945 27.4577 9.86022C27.8823 10.571 27.7992 11.2357 27.43 11.9372C27.0515 12.6572 26.673 13.405 26.4515 14.1804C26.1653 15.1958 25.7499 15.9989 24.596 16.1281V18.2975C25.4361 18.4359 25.9899 18.879 26.2853 19.6914C26.6453 20.6883 27.0607 21.6668 27.4946 22.6268C27.7162 23.1253 27.9377 23.6792 27.6331 24.1223C27.1438 24.8331 27.5685 25.1746 28.0115 25.5716C28.1962 25.7377 28.3716 25.9039 28.5285 26.0885C28.7223 26.3193 28.8885 26.3285 29.147 26.1624C29.7378 25.7839 30.347 25.83 30.984 26.1254C31.9625 26.5685 32.9871 26.9193 33.9564 27.3809C34.3902 27.584 34.9533 27.9163 35.0641 28.304C35.3041 29.1255 35.8026 29.1625 36.458 29.0979C36.6796 29.0794 36.9103 29.0794 37.1411 29.0979C37.418 29.1255 37.5473 29.0055 37.6027 28.7378C37.7596 27.9717 38.2858 27.584 38.9966 27.3255C39.9474 26.9839 40.8797 26.6055 41.7844 26.1716C42.4767 25.8485 43.1044 25.7839 43.7783 26.1716C43.8983 26.2362 44.1383 26.2547 44.2214 26.1901C44.7014 25.7654 45.1537 25.3131 45.5968 24.8977C44.9691 23.7715 44.9968 23.3838 45.5507 22.313C45.8922 21.6483 46.2338 20.9652 46.4184 20.2452C46.6861 19.2113 47.1384 18.4359 48.3015 18.2882V16.1189C47.1476 15.9989 46.7138 15.2235 46.4276 14.2173C46.2245 13.5065 45.9291 12.7957 45.5599 12.1495C45.0614 11.2818 44.9229 10.4602 45.6337 9.53713L45.643 9.56483Z" fill="white"/>
<path d="M36.4026 25.1838C31.7962 25.1469 28.353 21.316 28.4823 16.922C28.6115 12.6941 32.2393 9.22321 36.6057 9.29706C40.9258 9.3709 44.4613 12.9803 44.4059 17.2635C44.3413 21.6944 40.7504 25.2484 36.4026 25.193V25.1838ZM42.689 17.1804C42.652 13.6541 39.8365 10.9402 36.2733 10.9771C32.9224 11.014 30.1346 13.9126 30.1808 17.3097C30.2177 20.7806 33.0609 23.513 36.5872 23.476C39.975 23.4391 42.7259 20.5959 42.689 17.1804Z" fill="white"/>
</g>
<defs>
<clipPath id="clip0_18_283">
<rect width="47.0048" height="44.6486" fill="white" transform="translate(2.99512 3.66846)"/>
</clipPath>
</defs>
</svg>
