<svg width="53" height="52" viewBox="0 0 53 52" fill="none" xmlns="http://www.w3.org/2000/svg">
<g clip-path="url(#clip0_18_253)">
<path d="M44.7875 17.4719C43.9275 17.1319 43.6975 16.6719 43.5675 15.8319C42.9575 11.9519 39.3075 8.71188 35.3875 8.54188C34.3575 8.50188 33.3175 8.63188 32.2375 8.68188C30.1975 4.60188 25.9175 3.03188 22.5675 3.68188C18.3875 4.49188 15.9475 7.10188 15.0275 11.2119C11.7675 11.8419 9.69746 13.8119 8.91746 16.9919C8.87746 17.1519 8.67746 17.3219 8.50746 17.3919C6.21746 18.3419 4.70746 19.9819 4.05746 22.3919C3.91746 22.9319 3.86746 23.4819 3.76746 24.0319V24.5019C3.79746 24.6519 3.83746 24.8019 3.85746 24.9519C4.12746 27.8519 6.13746 30.3619 8.91746 31.2219C8.94746 31.2319 8.97746 31.2419 9.01746 31.2519C9.86746 31.4919 11.1375 31.5719 12.4775 31.5919C14.0575 31.6219 15.7075 31.5519 16.8375 31.5519C16.8375 31.0819 16.8375 30.6119 16.8375 30.1319C16.8375 28.5319 16.8375 26.9319 16.8375 25.3319C16.8375 22.9819 16.8375 20.6319 16.8175 18.2919C16.8175 17.2119 17.2375 16.4419 18.0675 15.8419C19.2775 14.9719 20.6775 14.5419 22.1175 14.2619C25.4975 13.6119 28.8675 13.6319 32.1975 14.5419C33.1675 14.8119 34.1075 15.2819 34.9875 15.7819C35.8275 16.2719 36.1975 17.0719 36.1975 18.1019C36.1775 22.1119 36.1875 26.1219 36.1875 30.1419C36.1875 30.6219 36.1875 31.0919 36.1875 31.5719C37.1275 31.5719 38.6875 31.6019 40.1375 31.5919C41.1675 31.5919 42.1475 31.5619 42.8075 31.4919C42.8675 31.4919 42.9175 31.4819 42.9675 31.4719C46.2075 31.0819 48.7475 28.4119 49.1675 25.1519C49.5775 22.0119 47.7175 18.6319 44.7775 17.4719H44.7875ZM11.4675 28.3319C9.51746 28.3419 7.66746 26.8419 7.24746 24.9019C7.18746 24.6319 7.15746 24.3519 7.11746 24.0719C7.08746 24.0519 7.06746 24.0319 7.03746 24.0019C7.18746 23.7519 7.27746 23.4219 7.49746 23.2919C7.68746 23.1819 8.03746 23.2319 8.26746 23.3419C8.40746 23.4119 8.50746 23.6919 8.52746 23.8919C8.68746 25.6619 9.69746 26.7119 11.4875 26.9019C11.8875 26.9419 12.1875 27.0619 12.2575 27.4919C12.3475 27.9819 12.0175 28.3219 11.4575 28.3319H11.4675ZM13.9175 30.1319C14.1075 30.1319 14.2975 30.1319 14.4975 30.1319C14.2675 30.1319 14.0675 30.1319 13.9175 30.1319ZM27.5375 9.94188C27.3075 10.0119 26.9575 9.91188 26.7375 9.77188C26.4275 9.57188 26.2175 9.23188 25.9175 9.01188C24.1575 7.72188 21.6175 8.38188 20.6975 10.3619C20.6475 10.4719 20.6075 10.5919 20.5475 10.7019C20.3475 11.0619 19.9775 11.2119 19.6475 11.0719C19.2675 10.9119 19.0775 10.5219 19.2475 10.1119C19.8275 8.67188 20.8575 7.69188 22.3275 7.18188C24.2375 6.51188 26.4675 7.15188 27.6775 8.70188C27.8075 8.87188 27.8975 9.07188 28.0475 9.34188C27.8775 9.55188 27.7375 9.87188 27.5375 9.93188V9.94188Z" fill="#323B60"/>
<path d="M17.9074 30.8718C17.9074 31.2718 17.6674 31.5618 17.2774 31.5518C17.1474 31.5518 16.9974 31.5518 16.8474 31.5518C16.8474 31.0818 16.8474 30.6118 16.8474 30.1318C17.0474 30.1318 17.1974 30.1318 17.2674 30.1418C17.6774 30.1818 17.9174 30.4418 17.9074 30.8618V30.8718Z" fill="#323B60"/>
<path d="M36.2074 31.5721H36.0174C35.5374 31.5721 35.2974 31.2721 35.3174 30.8221C35.3374 30.3921 35.5974 30.1421 36.0974 30.1421C36.1374 30.1421 36.1774 30.1421 36.2174 30.1421C36.2174 30.6221 36.2174 31.0921 36.2174 31.5721H36.2074Z" fill="#323B60"/>
<path d="M45.6375 39.672C44.9575 39.312 44.8775 38.872 44.9175 38.232C44.9575 37.662 44.9375 37.082 44.9175 36.502C44.9175 36.222 44.9075 35.942 44.8375 35.672C44.4975 34.332 43.3975 33.522 41.8875 33.512C40.1775 33.502 38.4575 33.512 36.7475 33.512H36.1975V32.912C36.1975 32.462 36.1975 32.012 36.1975 31.572C36.1975 31.092 36.1975 30.622 36.1975 30.142C36.1975 26.132 36.1975 22.122 36.2075 18.102C36.2075 17.082 35.8375 16.272 34.9975 15.782C34.1175 15.272 33.1775 14.802 32.2075 14.542C28.8775 13.632 25.5075 13.612 22.1275 14.262C20.6875 14.542 19.2875 14.972 18.0775 15.842C17.2375 16.442 16.8175 17.212 16.8275 18.292C16.8375 20.642 16.8475 22.992 16.8475 25.332C16.8475 26.932 16.8475 28.532 16.8475 30.132C16.8475 30.602 16.8475 31.072 16.8475 31.552C16.8475 32.072 16.8475 32.582 16.8475 33.102V33.672H16.2675C14.4875 33.672 12.7175 33.672 10.9375 33.672C9.51745 33.672 8.31745 34.662 8.16745 36.072C8.05745 37.062 8.10745 38.062 8.09745 39.052C8.09745 39.322 8.02745 39.452 7.76745 39.572C6.69745 40.082 6.15745 41.222 6.40745 42.322C6.65745 43.412 7.69745 44.222 8.82745 44.222C9.95745 44.222 10.9875 43.392 11.2275 42.302C11.4775 41.172 10.9475 40.072 9.85745 39.572C9.59745 39.452 9.52745 39.312 9.53745 39.052C9.54745 38.272 9.53745 37.492 9.53745 36.712C9.53745 35.622 10.0775 35.082 11.1675 35.082C12.8975 35.082 14.6275 35.082 16.3575 35.082C16.5075 35.082 16.6575 35.102 16.8175 35.112C16.8175 35.282 16.8475 35.402 16.8375 35.522C16.6675 37.002 17.4475 37.892 18.6475 38.532C19.6975 39.092 20.8275 39.442 21.9975 39.632C23.1175 39.812 24.2375 39.932 25.4175 40.082C25.4175 40.862 25.4075 41.672 25.4175 42.472C25.4175 42.792 25.3475 42.962 25.0275 43.092C23.8775 43.542 23.1975 44.712 23.3075 45.912C23.4275 47.102 24.3375 48.122 25.5275 48.382C26.6975 48.642 27.9475 48.082 28.5575 47.022C29.1675 45.962 29.0475 44.602 28.1975 43.742C27.8275 43.362 27.3375 43.102 26.8675 42.752V40.012C28.2275 39.852 29.5575 39.732 30.8675 39.522C32.2875 39.292 33.6575 38.882 34.8675 38.072C35.7575 37.482 36.2975 36.692 36.1975 35.572C36.1775 35.392 36.1975 35.202 36.1975 34.982C36.2975 34.962 36.3375 34.942 36.3775 34.942C38.3075 34.942 40.2375 34.932 42.1675 34.942C42.9075 34.942 43.4775 35.552 43.4875 36.302C43.4975 37.112 43.4775 37.922 43.4975 38.732C43.4975 39.092 43.4275 39.292 43.0575 39.472C42.0675 39.952 41.5675 41.072 41.8075 42.132C42.0375 43.212 43.0275 44.022 44.1475 44.072C45.1575 44.112 46.1975 43.392 46.5475 42.382C46.8975 41.372 46.5775 40.142 45.6275 39.642L45.6375 39.672ZM9.78745 41.752C9.78745 42.322 9.31745 42.812 8.76745 42.812C8.23745 42.812 7.71745 42.302 7.70745 41.762C7.70745 41.212 8.19745 40.732 8.75745 40.722C9.35745 40.722 9.78745 41.142 9.78745 41.742V41.752ZM27.5275 45.652C27.5275 46.422 26.8875 47.042 26.1175 47.032C25.3675 47.032 24.7175 46.362 24.7275 45.612C24.7375 44.862 25.4075 44.212 26.1475 44.222C26.9075 44.232 27.5275 44.882 27.5175 45.642L27.5275 45.652ZM34.6775 36.102C34.6575 36.402 34.3075 36.742 34.0275 36.942C33.1575 37.572 32.1375 37.882 31.1075 38.092C27.6075 38.812 24.1275 38.802 20.6875 37.772C20.0675 37.582 19.4875 37.262 18.9275 36.952C18.4575 36.692 18.2175 36.272 18.2475 35.672C18.2875 34.602 18.2575 33.532 18.2575 32.522C23.7675 34.702 29.2175 34.652 34.7075 32.512C34.7075 33.662 34.7475 34.882 34.6775 36.102ZM34.1275 31.062C33.2875 31.662 32.3375 31.982 31.3475 32.202C27.7275 33.002 24.1275 33.002 20.5775 31.882C19.9275 31.672 19.3275 31.292 18.7275 30.932C18.3875 30.732 18.2575 30.382 18.2675 29.972C18.2875 28.732 18.2675 27.482 18.2675 26.242C18.2675 26.122 18.2775 26.002 18.2775 25.982C23.7675 28.152 29.2175 28.112 34.7075 25.972C34.7075 26.042 34.7275 26.192 34.7275 26.332C34.7275 27.512 34.7075 28.702 34.7375 29.882C34.7475 30.412 34.5375 30.772 34.1375 31.062H34.1275ZM34.6875 23.722C34.6675 24.052 34.3175 24.472 34.0075 24.642C33.2475 25.052 32.4475 25.442 31.6175 25.642C27.9375 26.562 24.2575 26.542 20.6175 25.432C19.9375 25.222 19.3075 24.802 18.6875 24.432C18.3675 24.242 18.2475 23.902 18.2575 23.502C18.2775 22.382 18.2575 21.262 18.2575 20.202C23.7375 22.392 29.1975 22.342 34.7075 20.192C34.7075 21.332 34.7575 22.532 34.6775 23.722H34.6875ZM34.2675 18.602C33.5275 19.072 32.7175 19.462 31.8875 19.732C30.1275 20.302 28.2975 20.442 26.6675 20.422C24.3175 20.422 22.1975 20.222 20.1875 19.442C19.6275 19.232 19.0975 18.902 18.6275 18.542C18.1175 18.142 18.1075 17.692 18.6275 17.292C19.0975 16.922 19.6275 16.602 20.1875 16.382C22.2275 15.572 24.3775 15.392 26.5475 15.392C28.6875 15.392 30.8075 15.592 32.8175 16.382C33.3475 16.592 33.8575 16.882 34.3075 17.232C34.8975 17.692 34.9075 18.202 34.2775 18.602H34.2675ZM44.1775 42.822C43.6375 42.842 43.1275 42.352 43.1175 41.792C43.1075 41.222 43.5575 40.752 44.1375 40.742C44.7375 40.732 45.1875 41.152 45.1875 41.742C45.1875 42.302 44.7275 42.802 44.1775 42.822Z" fill="#323B60"/>
<path d="M21.5975 30.3119C21.0875 30.1019 20.4275 29.8819 19.8075 29.5719C19.4775 29.4019 19.4575 29.0219 19.6175 28.7019C19.7875 28.3519 20.1075 28.2619 20.4475 28.3819C21.0175 28.5719 21.5875 28.7819 22.1375 29.0219C22.4475 29.1519 22.5675 29.4019 22.4875 29.7419C22.3975 30.1319 22.1375 30.3019 21.5875 30.3219L21.5975 30.3119Z" fill="#323B60"/>
<path d="M21.8774 36.4917C21.0874 36.1517 20.3874 35.9117 19.7574 35.5517C19.6074 35.4717 19.5774 34.9817 19.6574 34.7317C19.7674 34.3917 20.1374 34.3417 20.4474 34.4417C21.0174 34.6317 21.5774 34.8517 22.1374 35.0917C22.4274 35.2217 22.6474 35.4817 22.4874 35.8017C22.3674 36.0617 22.1074 36.2517 21.8874 36.5117L21.8774 36.4917Z" fill="#323B60"/>
<path d="M21.8674 24.3119C21.0874 23.9819 20.3974 23.7519 19.7774 23.3919C19.6174 23.3019 19.5574 22.8019 19.6574 22.5819C19.7474 22.3919 20.1574 22.2119 20.3674 22.2619C20.9774 22.4119 21.5674 22.6719 22.1474 22.9119C22.4474 23.0419 22.6374 23.3119 22.4774 23.6219C22.3474 23.8819 22.0874 24.0719 21.8674 24.3019V24.3119Z" fill="#323B60"/>
</g>
<defs>
<clipPath id="clip0_18_253">
<rect width="45.46" height="44.905" fill="white" transform="translate(3.76746 3.54004)"/>
</clipPath>
</defs>
</svg>
