<svg width="53" height="53" viewBox="0 0 53 53" fill="none" xmlns="http://www.w3.org/2000/svg">
<path d="M47.5066 29.436V36.1055C47.4503 36.2393 47.3915 36.3714 47.3369 36.5059C46.916 37.5513 45.7862 38.2102 44.782 37.9957C44.357 35.1996 42.2629 33.89 40.3418 33.7579C39.2969 33.6861 38.3229 33.9454 37.4467 34.5187C36.1815 35.3472 35.4857 36.5402 35.2932 38.021H27.5908C27.1618 35.2355 25.0514 33.8296 23.0153 33.7514C21.9255 33.7098 20.9237 34.0147 20.0403 34.6549C18.895 35.4858 18.2685 36.6339 18.0792 38.0137H17.5947C17.159 35.5527 15.552 33.9895 13.2149 33.7636C12.187 33.6649 11.2204 33.9112 10.3443 34.4592C9.02112 35.286 8.30407 36.5116 8.08627 38.0292C6.76231 37.9248 5.83072 36.9422 5.82419 35.6734C5.81767 34.4535 5.82256 33.2336 5.82256 32.0137C5.82256 31.2243 5.89761 31.1477 6.67257 31.1477C7.45162 31.1477 8.23066 31.1477 9.09127 31.1477C8.94689 30.9935 8.86939 30.9055 8.78618 30.8231C8.04303 30.09 7.30723 29.3488 6.5494 28.6304C6.30141 28.3955 6.20433 28.1493 6.20597 27.8109C6.21739 25.6018 6.21168 23.3928 6.21168 21.183C6.21168 20.4287 6.30467 20.3341 7.04537 20.3341C14.0869 20.3341 21.1285 20.3341 28.17 20.3341C28.3446 20.3341 28.5184 20.3341 28.7411 20.3341C28.7411 20.14 28.7394 19.981 28.7411 19.8212C28.7476 19.1435 28.7198 18.4635 28.7696 17.7899C28.8447 16.7722 29.6367 16.0318 30.6491 16.0163C31.8564 15.9976 33.0645 15.9968 34.271 16.0163C35.2654 16.0326 35.9319 16.906 35.7288 17.8829C35.5575 18.7057 35.0231 19.1452 34.1446 19.1688C33.6641 19.1811 33.182 19.1713 32.7162 19.1713V31.1224H34.3559C34.3559 30.9234 34.3559 30.7497 34.3559 30.576C34.3559 27.4048 34.3559 24.2327 34.3559 21.0615C34.3559 20.4164 34.4766 20.2966 35.1145 20.2933C35.6978 20.2909 36.281 20.2933 36.8651 20.2933C37.1425 20.2933 37.4206 20.2933 37.7249 20.2933V20.8087C37.7249 22.7331 37.7241 24.6576 37.7265 26.582C37.7265 26.7981 37.7249 27.0191 37.7673 27.2286C38.0422 28.5872 39.106 29.4189 40.5849 29.4246C42.8911 29.4336 45.198 29.432 47.5041 29.4352L47.5066 29.436ZM17.8761 26.4002C17.8761 25.5594 17.8785 24.7195 17.8753 23.8788C17.8736 23.476 17.6983 23.2501 17.3883 23.2721C17.035 23.2966 16.907 23.5282 16.907 23.856C16.907 25.5505 16.9045 27.245 16.9094 28.9386C16.9102 29.3431 17.0954 29.5641 17.4054 29.5445C17.7929 29.52 17.8818 29.2599 17.8785 28.9207C17.872 28.08 17.8761 27.2401 17.8761 26.3993V26.4002ZM28.2125 26.383C28.2125 25.5448 28.228 24.7065 28.2002 23.869C28.1945 23.6856 28.0811 23.436 27.9359 23.3414C27.5811 23.1107 27.2384 23.3936 27.2368 23.8976C27.2327 25.5603 27.2336 27.2229 27.2368 28.8856C27.2368 29.3243 27.4024 29.5421 27.7206 29.5453C28.042 29.5486 28.2108 29.3317 28.2125 28.897C28.2149 28.0588 28.2125 27.2205 28.2125 26.3822V26.383ZM11.7482 26.3928C11.7482 27.2458 11.7522 28.0995 11.7457 28.9525C11.7433 29.2778 11.833 29.5208 12.2009 29.5453C12.5182 29.5665 12.6887 29.3618 12.6895 28.946C12.6936 27.2531 12.6887 25.5603 12.6936 23.8674C12.6944 23.5388 12.5908 23.3031 12.2344 23.2721C11.9268 23.246 11.7506 23.4695 11.749 23.8739C11.7457 24.7138 11.7482 25.5537 11.7482 26.3928ZM23.0194 26.4279C23.0194 25.5749 23.0129 24.7212 23.0227 23.8682C23.0267 23.5363 22.9215 23.3047 22.5666 23.2721C22.2591 23.2436 22.0796 23.4662 22.0788 23.8731C22.0756 25.566 22.0788 27.2588 22.0764 28.9517C22.0764 29.2721 22.1588 29.5225 22.5308 29.5461C22.8497 29.5657 23.0161 29.3635 23.0178 28.9476C23.0218 28.1077 23.0194 27.2686 23.0194 26.4287V26.4279ZM38.5774 30.6519C38.5774 30.6519 38.5774 30.6535 38.5774 30.6543C38.3212 30.6543 38.0626 30.6331 37.8098 30.66C37.5585 30.6869 37.3382 30.7864 37.3187 31.0971C37.2991 31.4053 37.4818 31.5676 37.7461 31.5823C38.2821 31.6125 38.8213 31.6173 39.358 31.5921C39.6248 31.5798 39.7521 31.3589 39.7366 31.102C39.7194 30.8256 39.5603 30.6559 39.2659 30.6511C39.0366 30.647 38.8074 30.6511 38.5782 30.6511L38.5774 30.6519Z" fill="white"/>
<path d="M47.5066 28.46C45.2021 28.4583 42.8976 28.4583 40.5931 28.4551C39.3792 28.4534 38.694 27.7864 38.6899 26.582C38.6834 24.6184 38.6875 22.6548 38.6899 20.6913C38.6899 20.573 38.7062 20.4548 38.7185 20.2819C40.3924 20.3757 42.0786 20.0365 43.6782 20.6823C45.7421 21.514 46.9975 23.0381 47.4266 25.23C47.4413 25.3058 47.4796 25.3776 47.5074 25.451V28.46H47.5066Z" fill="white"/>
<path d="M39.4461 42.4491C38.6858 42.2395 37.9622 41.9655 37.3675 41.4135C36.0909 40.2287 35.7132 38.4012 36.4408 36.8438C37.1824 35.2545 38.8856 34.3289 40.6061 34.5785C42.2947 34.8231 43.6447 36.1539 43.9311 37.8549C44.2794 39.922 42.9464 41.893 40.8842 42.3651C40.8092 42.3822 40.7398 42.4214 40.6672 42.4499H39.4461V42.4491ZM40.0008 40.4301C41.1485 40.4382 41.9529 39.644 41.9553 38.5007C41.9578 37.3762 41.1624 36.5706 40.0464 36.5665C38.9077 36.5616 38.136 37.3306 38.1303 38.4763C38.1245 39.635 38.8783 40.4227 40.0016 40.4309L40.0008 40.4301Z" fill="white"/>
<path d="M22.2672 42.4491C21.573 42.2599 20.9024 42.0299 20.3314 41.5602C18.9862 40.4545 18.5131 38.5831 19.1877 36.9644C19.8672 35.3343 21.555 34.3664 23.3587 34.5711C25.0016 34.7578 26.4381 36.1416 26.7253 37.8165C27.0809 39.8886 25.7635 41.8685 23.7021 42.3626C23.6279 42.3806 23.5593 42.4197 23.4884 42.4491H22.2672ZM22.8219 40.43C23.9574 40.4349 24.7193 39.6709 24.7267 38.5211C24.734 37.3591 23.99 36.5771 22.8676 36.5665C21.7166 36.5551 20.9375 37.3346 20.9375 38.4958C20.9375 39.6456 21.697 40.4251 22.8219 40.43Z" fill="white"/>
<path d="M12.2531 42.449C11.3582 42.2247 10.5474 41.8586 9.91596 41.1508C8.78533 39.8836 8.56834 38.0505 9.39143 36.577C10.208 35.1149 11.877 34.3019 13.4751 34.589C15.2069 34.8996 16.4836 36.2052 16.7381 37.9249C17.0424 39.9807 15.72 41.9043 13.6904 42.3634C13.6162 42.3805 13.546 42.4196 13.4743 42.4482H12.2531V42.449ZM12.8217 40.43C13.9637 40.4316 14.7566 39.6284 14.7436 38.4819C14.7305 37.3451 13.9523 36.5664 12.8298 36.5664C11.7008 36.5664 10.9422 37.3411 10.9414 38.4941C10.9414 39.6471 11.6992 40.4283 12.8217 40.4308V40.43Z" fill="white"/>
<path d="M18.0914 13.0487C19.4692 12.3197 20.8193 12.3605 22.1351 13.2289C22.8399 12.6679 23.6304 12.3572 24.5326 12.3629C26.39 12.376 27.9277 13.7712 28.148 15.6165C28.1741 15.8375 28.3201 16.0446 28.4523 16.3561C27.7825 17.2001 27.9367 18.3474 27.9245 19.5029H6.52734C6.82754 18.5782 7.37328 17.8892 8.25347 17.5075C8.51288 17.395 8.6124 17.245 8.67032 16.993C8.99662 15.5643 9.87273 14.6413 11.2669 14.1895C11.4194 14.1398 11.6013 14.0085 11.6609 13.869C12.7711 11.2401 16.0292 10.7035 17.9144 12.8473C17.9674 12.9076 18.0204 12.9672 18.093 13.0487H18.0914ZM26.678 17.2694C26.6609 16.1539 26.0058 15.1909 25.0465 14.8402C24.1541 14.5149 23.0903 14.8468 22.596 15.6043C22.4426 15.8392 22.432 16.0716 22.6539 16.2575C22.8668 16.4352 23.1009 16.432 23.313 16.2338C23.3726 16.1784 23.4223 16.1131 23.4794 16.0561C23.9934 15.5423 24.6916 15.5431 25.2113 16.0561C25.5588 16.3985 25.695 16.8299 25.7277 17.3004C25.7513 17.6413 25.8867 17.9038 26.262 17.8663C26.6078 17.8313 26.7155 17.5654 26.678 17.2694ZM15.2787 13.6399L15.2314 13.7484C14.1758 13.759 13.3902 14.3917 13.2361 15.3556C13.1521 15.8767 13.3217 16.2306 13.6701 16.2624C14.011 16.2934 14.1611 16.105 14.206 15.5195C14.2345 15.1477 14.4165 14.9291 14.7526 14.7929C15.2224 14.6021 15.6221 14.7383 16.0113 15.0058C16.2609 15.177 16.5178 15.2194 16.725 14.9373C16.9331 14.6543 16.8131 14.3722 16.5774 14.2327C16.1695 13.993 15.7143 13.8332 15.2795 13.6399H15.2787Z" fill="white"/>
</svg>
