<svg width="52" height="52" viewBox="0 0 52 52" fill="none" xmlns="http://www.w3.org/2000/svg">
<g clip-path="url(#clip0_18_200)">
<path d="M5.49756 45.4697C5.98076 44.6331 6.47839 43.7965 6.94716 42.9527C7.79817 41.4382 8.63476 39.9165 9.49299 38.4092C9.61559 38.2 9.8031 37.9692 10.0195 37.8827C11.808 37.1615 13.611 36.4764 15.4501 35.7624C15.9405 36.7793 16.4453 37.7601 16.8852 38.777C16.9862 39.0078 16.8492 39.3395 16.7987 39.6208C16.6833 40.2915 16.5463 40.9694 16.4309 41.6401C16.3516 42.1017 16.5751 42.4407 17.0006 42.5272C17.3973 42.6137 17.7651 42.3541 17.8516 41.8998C18.0392 40.9261 18.2267 39.9597 18.3781 38.9861C18.4142 38.7481 18.3565 38.4669 18.2555 38.2433C17.7579 37.1615 17.2458 36.0941 16.7194 35.034C16.5968 34.7888 16.5896 34.6085 16.7482 34.3777C17.3829 33.4473 18.0031 32.5026 18.6089 31.5578C18.8253 31.2116 19.121 31.0746 19.5104 31.0313C20.6138 30.9159 21.7173 30.8006 22.8207 30.6563C22.9938 30.6347 23.1813 30.5049 23.3039 30.375C24.602 28.9831 25.893 27.5768 27.1839 26.1777C27.2921 26.0623 27.4003 25.9469 27.5734 25.7666C27.7897 26.9277 27.9845 28.0023 28.1792 29.0697C28.5037 30.8655 28.8138 32.6612 29.1528 34.457C29.2033 34.7311 29.16 34.9042 28.9364 35.0845C28.1503 35.7047 27.3787 36.3465 26.5637 37.01C26.2608 36.5196 25.9723 36.0509 25.6838 35.5893C25.3377 35.0412 24.9843 34.9114 24.566 35.1782C24.1765 35.4306 24.1333 35.8201 24.4434 36.3321C24.7607 36.8514 25.0925 37.3634 25.3954 37.8899C25.4747 38.0269 25.518 38.2505 25.4675 38.3803C24.3713 41.0848 23.2606 43.7893 22.1572 46.4866H5.49756C5.49756 46.1404 5.49756 45.8086 5.49756 45.4697Z" fill="#323B60"/>
<path d="M23.7078 46.4789C24.5299 44.4812 25.4242 42.5123 26.1526 40.4857C26.6502 39.101 27.3931 37.9904 28.6191 37.1754C29.2393 36.7644 29.7802 36.2379 30.3644 35.7691C30.6529 35.5383 30.7539 35.2571 30.6889 34.882C30.1697 32.0405 29.6721 29.1918 29.16 26.3503C29.1167 26.1267 29.0807 25.9032 29.0302 25.5786C29.5711 25.9969 30.0471 26.3575 30.5159 26.7253C31.1433 27.2157 31.7419 27.7278 32.391 28.1893C32.8742 28.5283 33.1699 28.961 33.3934 29.5019C34.2444 31.6367 35.1243 33.757 36.0114 35.8773C36.1628 36.2451 36.1628 36.5552 35.9969 36.923C35.4416 38.1707 34.9007 39.4328 34.3743 40.6949C34.2949 40.8896 34.2733 41.1348 34.3238 41.344C34.6195 42.6637 34.9152 43.9835 35.2613 45.2961C35.3911 45.801 35.3118 46.1832 34.8863 46.4861H23.7222L23.7078 46.4789Z" fill="#323B60"/>
<path d="M29.3331 13.9532C29.6504 14.22 29.9605 14.4436 30.2273 14.7104C30.8548 15.3451 30.8548 16.1384 30.2273 16.7803C29.6576 17.3716 29.0734 17.9558 28.482 18.5255C27.8546 19.1314 27.0685 19.1169 26.4483 18.5111C26.1814 18.2443 25.929 17.963 25.6189 17.6385C24.8761 18.5111 24.1765 19.3117 23.5058 20.1338C21.7317 22.3118 20.145 24.6124 18.7243 27.0429C18.6954 27.0934 18.6594 27.1511 18.6305 27.2015C18.4141 27.5549 18.104 27.728 17.7074 27.591C17.3251 27.4612 17.1521 27.1511 17.217 26.7616C17.4694 25.3264 17.6064 23.8552 18.0319 22.4705C20.7076 13.7368 26.5348 8.26293 35.3623 5.99116C36.3287 5.73874 37.3383 5.64499 38.3336 5.50796C38.9033 5.42863 39.199 5.5945 39.3144 6.02001C39.4442 6.48879 39.199 6.75563 38.824 6.9792C35.7229 8.78219 32.8236 10.8737 30.1264 13.2464C29.8956 13.4483 29.672 13.6503 29.3331 13.9532Z" fill="#323B60"/>
<path d="M28.9581 20.1986C29.9534 19.1962 30.9198 18.2154 31.915 17.2129C33.105 18.338 34.3743 19.5424 35.6508 20.7468C38.9828 23.8984 42.3147 27.05 45.6538 30.2016C46.4255 30.93 46.6779 31.8099 46.3894 32.8196C46.1082 33.7932 45.4952 34.4928 44.4783 34.7091C43.447 34.9327 42.5671 34.6081 41.8387 33.8293C39.8987 31.7594 37.9442 29.7112 35.997 27.6486C33.7252 25.247 31.4535 22.8382 29.1817 20.4366C29.0807 20.3285 28.9726 20.2131 28.9653 20.2059L28.9581 20.1986Z" fill="#323B60"/>
</g>
<defs>
<clipPath id="clip0_18_200">
<rect width="41" height="40.9976" fill="white" transform="translate(5.49756 5.48877)"/>
</clipPath>
</defs>
</svg>
