<svg width="53" height="52" viewBox="0 0 53 52" fill="none" xmlns="http://www.w3.org/2000/svg">
<g clip-path="url(#clip0_23_487)">
<path d="M47.9042 23.4973C47.5927 22.2194 46.4825 21.3169 45.1567 21.3089C43.3037 21.3009 41.4428 21.3089 39.5899 21.3089H38.9988V20.7258C38.9988 17.3314 39.0148 13.945 38.9988 10.5506C38.9829 7.53954 37.0181 5.16744 34.0709 4.55245C33.7914 4.49655 33.5119 4.45661 33.2243 4.40869H9.02416C8.76059 4.45661 8.48904 4.48856 8.22547 4.55245C6.46037 4.95978 5.23839 6.42937 5.21442 8.28232C5.18248 11.5569 5.19845 14.8395 5.20644 18.1221C5.20644 18.7211 5.47799 18.9687 6.11694 18.9767C7.73028 18.9767 9.35162 18.9767 10.965 18.9767H11.5081V34.1597C10.4698 34.4393 9.51934 34.8945 8.68072 35.5974C6.59615 37.3385 5.74954 40.2058 6.5642 42.8015C7.38685 45.4292 9.71901 47.3061 12.4345 47.5377C15.4057 47.7933 18.0733 46.2039 19.2793 43.4485C19.3751 43.2248 19.463 43.097 19.7505 43.097C22.4421 43.113 25.1257 43.105 27.8172 43.105C27.8811 43.105 27.937 43.121 28.0648 43.129C28.0648 43.5922 28.0648 44.0475 28.0648 44.5107C28.0808 46.3876 29.2469 47.5777 31.1238 47.5777C35.7162 47.5936 40.3087 47.5856 44.9011 47.5777C46.5464 47.5777 47.5528 46.747 47.9281 45.1417C47.9361 45.1017 47.9761 45.0618 48 45.0219V23.8008C47.9601 23.697 47.9202 23.6011 47.8962 23.4973H47.9042ZM13.0895 46.1959C10.0704 46.2119 7.6584 43.8158 7.63444 40.8048C7.61847 37.8097 10.0465 35.3578 13.0415 35.3418C16.0206 35.3338 18.4726 37.7858 18.4726 40.7808C18.4726 43.7599 16.0606 46.1879 13.0815 46.1959H13.0895ZM16.9871 34.0319C17.2267 33.7684 17.4982 33.8323 17.7378 34.0639C17.8177 34.1438 17.8976 34.2156 18.0573 34.3674C18.4726 33.9281 18.856 33.5288 19.2393 33.1214C19.479 32.8739 19.7505 32.7381 20.03 33.0096C20.3256 33.2972 20.1898 33.5847 19.9342 33.8403C19.447 34.3275 18.9598 34.8067 18.4726 35.3019C18.1691 35.6133 17.8736 35.6293 17.5621 35.3019C17.3944 35.1261 17.2267 34.9584 17.0509 34.7907C16.8113 34.5591 16.7315 34.2955 16.9711 34.0319H16.9871ZM24.1353 21.3089C23.9915 21.3089 23.8478 21.3009 23.704 21.3089C23.3047 21.3408 23.0331 21.6204 23.0491 21.9878C23.0651 22.4111 23.3047 22.6427 23.72 22.6427C24.9499 22.6507 26.1799 22.6427 27.4179 22.6427H28.3923C28.2565 23.3056 28.1207 23.9366 27.977 24.6314H26.6432C25.7486 24.6314 24.8541 24.6314 23.9516 24.6314C23.3206 24.6314 23.0491 24.8311 23.0411 25.2943C23.0411 25.7496 23.3446 25.9812 23.9356 25.9812C25.1336 25.9812 26.3397 25.9812 27.5377 25.9812H28.0409V28.3054C27.5776 28.3054 27.1383 28.3054 26.6911 28.3054C25.7486 28.3054 24.8062 28.3054 23.8557 28.3054C23.3366 28.3054 23.0411 28.5689 23.0411 28.9843C23.0411 29.4155 23.3047 29.6791 23.8318 29.6871C25.0298 29.7031 26.2358 29.6871 27.4339 29.6871H28.0329V31.6519H27.5297C26.3476 31.6519 25.1576 31.6519 23.9756 31.6519C23.3206 31.6519 23.0331 31.8675 23.0411 32.3307C23.0411 32.794 23.3366 32.9857 24.0075 32.9937H28.0488V35.3338C27.8572 35.3418 27.6894 35.3578 27.5217 35.3578C26.3237 35.3578 25.1177 35.3578 23.9196 35.3578C23.3286 35.3578 23.0571 35.5734 23.0411 36.0127C23.0331 36.4679 23.3366 36.7235 23.9196 36.7235C25.2774 36.7235 26.6352 36.7235 28.0329 36.7235V41.6993H19.8943C19.8144 40.8447 19.8304 39.9742 19.6307 39.1595C19.431 38.3369 19.0077 37.5701 18.6643 36.7315H20.1019C20.9485 36.7315 21.1322 36.5478 21.1322 35.6852C21.1322 34.631 21.1322 33.5687 21.1322 32.5144C21.1322 31.8595 20.9166 31.6599 20.2697 31.6599C19.1675 31.6599 18.0653 31.6599 16.9551 31.6599C16.2842 31.6599 16.0766 31.8755 16.0686 32.5544C16.0686 33.2333 16.0686 33.9201 16.0686 34.5351C15.0223 34.2955 14.0159 34.0719 12.9138 33.8243V33.3371C12.9138 25.4461 12.9138 17.5551 12.9138 9.67203C12.9138 8.34621 13.0176 7.00442 11.9793 5.80639H12.6262C19.3192 5.80639 26.0042 5.85431 32.6972 5.78243C35.4127 5.75847 37.7129 7.84304 37.657 10.7742C37.5931 14.0888 37.6411 17.3953 37.6411 20.7099V21.2849H24.1273L24.1353 21.3089ZM34.8696 43.3526C34.8537 44.0155 34.5182 44.335 33.8473 44.351C33.5917 44.351 33.3361 44.351 33.0806 44.351C32.793 44.351 32.5055 44.359 32.218 44.351C31.6829 44.327 31.3235 43.9756 31.3075 43.4405C31.2915 42.8654 31.2915 42.2904 31.3075 41.7153C31.3235 41.1642 31.6589 40.8208 32.21 40.8048C32.801 40.7888 33.3921 40.7888 33.9831 40.8048C34.5102 40.8208 34.8377 41.1562 34.8616 41.6834C34.8856 42.2424 34.8776 42.8015 34.8616 43.3606L34.8696 43.3526ZM31.3075 37.0989C31.3235 36.5159 31.6749 36.1405 32.2579 36.1165C32.817 36.0926 33.3761 36.0926 33.9352 36.1165C34.5102 36.1405 34.8457 36.4919 34.8616 37.067C34.8776 37.626 34.8776 38.1851 34.8616 38.7442C34.8457 39.3192 34.5182 39.6707 33.9432 39.7026C33.3841 39.7346 32.825 39.7266 32.2659 39.7026C31.6509 39.6787 31.3155 39.3033 31.3075 38.6803C31.3075 38.4247 31.3075 38.1691 31.3075 37.9136C31.3075 37.642 31.3075 37.3705 31.3075 37.0989ZM34.8616 34.0958C34.8457 34.7028 34.5022 35.0223 33.8872 35.0303C33.6157 35.0303 33.3441 35.0303 33.0726 35.0303C32.817 35.0303 32.5614 35.0303 32.3058 35.0303C31.6749 35.0223 31.3235 34.6789 31.3075 34.0639C31.2995 33.5208 31.2995 32.9777 31.3075 32.4346C31.3155 31.8356 31.6669 31.4921 32.2659 31.4762C32.825 31.4682 33.3841 31.4682 33.9432 31.4762C34.5022 31.4921 34.8377 31.8116 34.8616 32.3707C34.8856 32.9457 34.8776 33.5208 34.8616 34.0958ZM39.8295 43.3287C39.8135 43.9756 39.4461 44.335 38.8071 44.343C38.296 44.343 37.7848 44.343 37.2737 44.343C36.6427 44.343 36.2673 44.0155 36.2354 43.4005C36.2034 42.8414 36.2034 42.2824 36.2354 41.7233C36.2673 41.1163 36.6187 40.8048 37.2257 40.7888C37.4973 40.7888 37.7689 40.7888 38.0404 40.7888C38.296 40.7888 38.5516 40.7888 38.8071 40.7888C39.4541 40.8048 39.8055 41.1482 39.8215 41.8032C39.8374 42.3143 39.8374 42.8255 39.8215 43.3366L39.8295 43.3287ZM36.2354 37.1388C36.2593 36.4679 36.6267 36.1245 37.3056 36.1085C37.7689 36.1005 38.2321 36.1085 38.6953 36.1085C39.478 36.1165 39.8295 36.4679 39.8374 37.2586C39.8374 37.4823 39.8374 37.7059 39.8374 37.9295C39.8374 39.5748 39.7097 39.7026 38.0724 39.7026C37.8168 39.7026 37.5612 39.7026 37.3056 39.7026C36.6267 39.6787 36.2673 39.3432 36.2434 38.6723C36.2274 38.1612 36.2274 37.65 36.2434 37.1388H36.2354ZM39.8215 34.1118C39.7895 34.6949 39.4141 35.0223 38.8151 35.0303C38.5596 35.0303 38.304 35.0303 38.0484 35.0303C37.7768 35.0303 37.5053 35.0303 37.2337 35.0303C36.6427 35.0223 36.2753 34.6949 36.2434 34.0958C36.2114 33.5368 36.2114 32.9777 36.2434 32.4186C36.2753 31.8116 36.6347 31.4921 37.2337 31.4841C37.7768 31.4762 38.32 31.4762 38.8631 31.4841C39.4301 31.4921 39.7975 31.8196 39.8295 32.3946C39.8614 32.9697 39.8614 33.5447 39.8295 34.1198L39.8215 34.1118ZM38.0085 29.8069C36.2514 29.8069 34.4942 29.8069 32.7371 29.8069C31.6669 29.8069 31.3075 29.4395 31.3075 28.3613C31.3075 27.5466 31.3075 26.732 31.3075 25.9173C31.3075 24.879 31.6749 24.5196 32.7291 24.5196C34.5981 24.5196 36.467 24.5196 38.3359 24.5196C40.0132 24.5196 41.6904 24.5196 43.3676 24.5196C44.382 24.5196 44.7414 24.887 44.7494 25.9093C44.7494 26.7559 44.7494 27.6025 44.7494 28.4491C44.7494 29.4235 44.374 29.8069 43.3836 29.8069C41.5946 29.8069 39.8055 29.8069 38.0085 29.8069ZM41.1952 32.3627C41.2112 31.8435 41.5546 31.5001 42.0738 31.4841C42.6648 31.4682 43.2558 31.4682 43.8469 31.4841C44.3979 31.5001 44.7254 31.8435 44.7414 32.3946C44.7494 32.6822 44.7414 32.9697 44.7414 33.2572C44.7414 33.5447 44.7494 33.8323 44.7414 34.1198C44.7174 34.6709 44.382 35.0143 43.8389 35.0303C43.2638 35.0463 42.6888 35.0463 42.1137 35.0303C41.5626 35.0223 41.2112 34.6789 41.1952 34.1358C41.1792 33.5447 41.1792 32.9537 41.1952 32.3627ZM44.7494 38.6404C44.7414 39.3432 44.4059 39.6866 43.6871 39.7026C43.2079 39.7106 42.7287 39.7106 42.2495 39.7026C41.5307 39.6866 41.2032 39.3432 41.1952 38.6324C41.1952 38.1212 41.1952 37.6101 41.1952 37.0989C41.2032 36.4839 41.5626 36.1325 42.1856 36.1085C42.6967 36.0926 43.2079 36.0926 43.7191 36.1085C44.3979 36.1245 44.7334 36.4759 44.7494 37.1548C44.7494 37.4104 44.7494 37.666 44.7494 37.9215C44.7494 38.1612 44.7494 38.4008 44.7494 38.6404ZM44.7414 43.4724C44.7254 43.9836 44.366 44.327 43.8469 44.343C43.2558 44.359 42.6648 44.359 42.0738 44.343C41.5626 44.327 41.2112 43.9676 41.1952 43.4564C41.1792 42.8814 41.1792 42.3063 41.1952 41.7313C41.2032 41.1482 41.5387 40.8128 42.1137 40.7888C42.4012 40.7729 42.6888 40.7888 42.9763 40.7888C43.2798 40.7888 43.5833 40.7808 43.8868 40.7888C44.39 40.8208 44.7254 41.1482 44.7414 41.6434C44.7653 42.2504 44.7653 42.8574 44.7414 43.4644V43.4724Z" fill="#323B60"/>
<path d="M21.1402 25.3979C21.1402 24.8627 20.9166 24.6551 20.3655 24.6471C19.7905 24.6391 19.2154 24.6471 18.6404 24.6471C18.0653 24.6471 17.4583 24.6471 16.8673 24.6471C16.3401 24.6551 16.1005 24.8707 16.0925 25.4059C16.0766 26.5719 16.0766 27.746 16.0925 28.9121C16.0925 29.4392 16.3322 29.6948 16.8593 29.7028C18.0413 29.7188 19.2314 29.7188 20.4134 29.7028C20.9246 29.6948 21.1482 29.4552 21.1562 28.952C21.1642 27.77 21.1642 26.5799 21.1562 25.3979H21.1402ZM19.9422 26.8834C19.439 27.3786 18.9439 27.8738 18.4567 28.369C18.1611 28.6645 17.8816 28.6725 17.5941 28.369C17.4184 28.1853 17.2347 28.0096 17.051 27.8259C16.8194 27.5863 16.7475 27.3147 16.9951 27.0671C17.2427 26.8195 17.5142 26.8914 17.7538 27.123C17.8337 27.1949 17.9136 27.2748 18.0653 27.4106C18.4806 26.9713 18.872 26.5719 19.2474 26.1646C19.479 25.917 19.7505 25.7733 20.0301 26.0528C20.3176 26.3403 20.1898 26.6278 19.9342 26.8834H19.9422Z" fill="#323B60"/>
<path d="M21.1402 20.1428C21.1402 19.5518 21.1402 18.9607 21.1402 18.3697C21.1323 17.8665 20.9086 17.595 20.4294 17.595C19.2154 17.579 18.0014 17.579 16.7874 17.595C16.3641 17.595 16.0925 17.8665 16.0925 18.2978C16.0766 19.5278 16.0766 20.7578 16.0925 21.9878C16.0925 22.4111 16.3641 22.6587 16.8114 22.6587C18.0094 22.6587 19.2074 22.6587 20.4054 22.6587C20.9086 22.6587 21.1323 22.427 21.1402 21.9239C21.1562 21.3328 21.1402 20.7418 21.1402 20.1508V20.1428ZM19.9502 19.7594C19.447 20.2546 18.9518 20.7498 18.4646 21.245C18.1691 21.5405 17.8896 21.5485 17.5941 21.245C17.4104 21.0613 17.2347 20.8856 17.051 20.7019C16.8194 20.4623 16.7475 20.1907 16.9951 19.9431C17.2427 19.6875 17.5142 19.7674 17.7538 19.991C17.8337 20.0709 17.9136 20.1428 18.0573 20.2786C18.4726 19.8473 18.856 19.44 19.2394 19.0406C19.471 18.793 19.7425 18.6493 20.0221 18.9208C20.3096 19.2003 20.1978 19.4879 19.9342 19.7514L19.9502 19.7594Z" fill="#323B60"/>
<path d="M28.7597 18.9765C27.1783 18.9765 25.5969 18.9765 24.0155 18.9765C23.8158 18.9765 23.5602 18.9765 23.4165 18.8647C23.2407 18.721 23.065 18.4574 23.073 18.2497C23.081 18.0501 23.2807 17.8025 23.4644 17.6747C23.6161 17.5708 23.8637 17.5868 24.0634 17.5868C27.1783 17.5868 30.2931 17.5868 33.416 17.5868C33.4959 17.5868 33.5757 17.5868 33.6556 17.5868C34.1668 17.6188 34.4623 17.8823 34.4623 18.2897C34.4623 18.697 34.1588 18.9685 33.6476 18.9765C32.0183 18.9845 30.389 18.9765 28.7597 18.9765Z" fill="#323B60"/>
<path d="M33.1045 13.2422C33.1045 13.4019 32.8968 13.6735 32.777 13.6815C32.5613 13.6974 32.2419 13.6176 32.1221 13.4578C31.5151 12.6511 30.964 11.8125 30.3889 10.9899C30.3011 10.8621 30.2052 10.7423 30.0215 10.4947V12.763C30.0215 12.9387 30.0695 13.1383 30.0056 13.2821C29.9257 13.4498 29.75 13.5776 29.6222 13.7214C29.5104 13.5776 29.3187 13.4339 29.3107 13.2821C29.2708 12.8029 29.2947 12.3237 29.2947 11.8445C29.2947 11.2215 29.3027 10.5985 29.2947 9.97555C29.2947 9.68003 29.3426 9.36855 29.6621 9.35257C29.8778 9.3366 30.1972 9.48835 30.325 9.66406C30.932 10.4707 31.4831 11.3094 32.0582 12.132C32.138 12.2438 32.2179 12.3476 32.3856 12.5713V10.1193C32.3856 9.97555 32.3457 9.80782 32.4016 9.69601C32.4815 9.55225 32.6412 9.44842 32.769 9.32861C32.8888 9.4564 33.1124 9.57621 33.1124 9.704C33.1364 10.8861 33.1444 12.0681 33.1124 13.2502L33.1045 13.2422Z" fill="#323B60"/>
<path d="M28.56 13.2897C28.0329 12.0437 27.5217 10.7818 26.9626 9.55183C26.7949 9.18443 26.2917 9.21638 26.124 9.59975C25.5889 10.8058 25.0777 12.0278 24.5825 13.2577C24.5426 13.3695 24.6384 13.6331 24.7343 13.673C24.8461 13.729 25.0458 13.6331 25.1895 13.5612C25.2614 13.5293 25.3014 13.4015 25.3173 13.3136C25.4212 12.7226 25.7806 12.5389 26.3396 12.6427C26.4355 12.6587 26.5313 12.6587 26.6272 12.6427C27.2581 12.5309 27.7054 12.6987 27.8412 13.3935C27.8572 13.4814 27.921 13.6012 27.9929 13.6251C28.1127 13.673 28.2725 13.713 28.3923 13.673C28.4881 13.6411 28.552 13.4973 28.6079 13.4255C28.584 13.3456 28.584 13.3136 28.576 13.2817L28.56 13.2897ZM25.9004 11.9319C26.108 11.4287 26.3077 10.9336 26.5473 10.3425C26.7869 10.9176 26.9866 11.3968 27.2102 11.9319H25.9004Z" fill="#323B60"/>
<path d="M19.5827 9.40015C19.0316 9.34424 18.4645 9.36021 17.9055 9.34424C17.6179 9.34424 17.4422 9.48001 17.4422 9.77553C17.4422 10.9576 17.4263 12.1396 17.4582 13.3297C17.4582 13.4655 17.6898 13.6012 17.8176 13.729C17.9294 13.5853 18.1211 13.4575 18.1451 13.2977C18.193 12.9543 18.161 12.6029 18.161 12.1716C18.6482 12.1716 19.0636 12.1876 19.4709 12.1716C20.2776 12.1237 20.8207 11.5965 20.8446 10.8538C20.8766 10.0311 20.4213 9.488 19.5827 9.40015ZM19.5108 11.4448C19.0875 11.4927 18.6562 11.5007 18.177 11.5326V10.071C18.6163 10.071 19.0476 10.0391 19.4629 10.079C19.8223 10.111 20.0939 10.3027 20.1098 10.718C20.1258 11.1413 19.9102 11.3889 19.5028 11.4368L19.5108 11.4448Z" fill="#323B60"/>
<path d="M24.4148 13.3772C24.3988 13.6967 24.1432 13.7127 23.8796 13.7127C23.2726 13.7127 22.6656 13.7047 22.0586 13.7127C21.6513 13.7206 21.4676 13.529 21.4676 13.1376C21.4676 12.0354 21.4516 10.9332 21.4836 9.83105C21.4836 9.65534 21.6992 9.35184 21.843 9.33586C22.1385 9.29593 22.1944 9.57547 22.1944 9.83903C22.1944 10.8534 22.1944 11.8757 22.1944 12.9699C22.8014 12.9699 23.3445 12.9699 23.8876 12.9699C24.1592 12.9699 24.4307 13.0258 24.4228 13.3692L24.4148 13.3772Z" fill="#323B60"/>
<path d="M13.5528 40.2931V38.4481C13.8882 38.528 14.1838 38.5839 14.4793 38.6638C14.8387 38.7596 15.1502 38.7676 15.3099 38.3523C15.4377 38.0168 15.254 37.7373 14.7828 37.6015C14.3754 37.4817 13.9521 37.4018 13.5448 37.306C13.4969 36.9386 13.6007 36.4594 13.0576 36.4674C12.4746 36.4674 12.6583 37.0105 12.5704 37.338C12.2749 37.4418 11.9794 37.5137 11.7078 37.6494C10.989 38.0009 10.5897 38.5919 10.5817 39.4065C10.5817 40.1893 11.0289 40.6765 11.6998 40.9879C11.8995 41.0838 12.1311 41.1237 12.3228 41.2276C12.4346 41.2914 12.5784 41.4352 12.5784 41.547C12.6103 42.0262 12.5944 42.5054 12.5944 43.1204C12.1391 42.9847 11.7637 42.8808 11.3884 42.769C11.0529 42.6652 10.7254 42.6572 10.5817 43.0406C10.4299 43.4239 10.6056 43.7035 10.989 43.8233C11.5002 43.983 12.0193 44.1188 12.5784 44.2785C12.6583 44.582 12.4666 45.1491 13.0816 45.1251C13.6486 45.1092 13.4649 44.5661 13.5608 44.2386C14.9185 43.9031 15.5415 43.368 15.5974 42.4016C15.6773 40.98 14.6071 40.6285 13.5608 40.317L13.5528 40.2931ZM12.5704 40.0295C12.1711 39.9337 11.8196 39.8219 11.7717 39.3506C11.7318 38.9513 11.9874 38.7037 12.5704 38.5839V40.0295ZM13.5528 42.9926V41.5949C14.1678 41.6828 14.4154 41.8905 14.4154 42.2738C14.4154 42.6971 14.1518 42.9208 13.5528 42.9926Z" fill="#323B60"/>
</g>
<defs>
<clipPath id="clip0_23_487">
<rect width="42.8047" height="43.1782" fill="white" transform="translate(5.19531 4.40869)"/>
</clipPath>
</defs>
</svg>
