<svg width="44" height="46" viewBox="0 0 44 46" fill="none" xmlns="http://www.w3.org/2000/svg">
<g clip-path="url(#clip0_23_566)">
<path d="M25.3064 0C28.0145 2.18363 27.9763 5.84527 25.9739 7.97169C25.5543 8.41032 25.0299 8.76313 24.5149 9.08734C24.1907 9.29712 24.0382 9.51644 24.0382 9.9074C24.0382 14.6179 24.0477 19.3285 24.0382 24.039C24.0382 24.4777 24.2098 24.7065 24.5817 24.9068C27.8619 26.6994 28.3959 31.2193 25.6306 33.6604C25.478 33.8034 25.2396 33.9273 25.0394 33.9273C24.6961 33.9273 24.6103 33.6413 24.6198 33.3361C24.6198 32.4589 24.6484 31.5816 24.6103 30.7043C24.6008 30.4469 24.4673 30.1322 24.2766 29.9606C23.6854 29.398 23.0465 28.9021 22.4362 28.3681C22.1215 28.0916 21.8545 28.0916 21.5399 28.3681C20.9296 28.9021 20.2907 29.4075 19.6995 29.9606C19.5183 30.1322 19.3848 30.4469 19.3658 30.7043C19.3276 31.5339 19.3658 32.3635 19.3372 33.1931C19.3276 33.4315 19.2037 33.832 19.0511 33.8701C18.8318 33.9273 18.4885 33.7938 18.2978 33.6222C15.6183 31.2097 16.1046 26.7852 19.2609 24.9926C19.7853 24.697 19.9284 24.3632 19.9284 23.8006C19.9093 19.2045 19.9093 14.6084 19.9284 10.0027C19.9284 9.53551 19.7758 9.26852 19.3562 9.0492C15.9616 7.18024 15.5706 2.50784 18.6029 0.0762841C18.622 0.0572131 18.6411 0.0286065 18.6601 0C18.7936 0 18.9176 0 19.0511 0C19.1464 0.257459 19.3181 0.514918 19.3276 0.781912C19.3658 1.62104 19.3276 2.4697 19.3562 3.30882C19.3562 3.53767 19.4802 3.82374 19.6423 3.97631C20.2526 4.54844 20.9201 5.07289 21.5494 5.63549C21.845 5.89294 22.112 5.89294 22.4076 5.63549C23.0369 5.08243 23.7044 4.55797 24.3147 3.97631C24.4768 3.82374 24.5912 3.53767 24.6008 3.30882C24.6389 2.4697 24.6008 1.62104 24.6294 0.781912C24.6389 0.514918 24.8105 0.266994 24.9059 0.00953551C25.0394 0.00953551 25.1634 0.00953551 25.2969 0.00953551L25.3064 0Z" fill="#323B60"/>
<path d="M21.2824 30.4371V39.0191C20.5291 38.6663 19.8139 38.323 19.0988 38.0083C15.2083 36.3301 11.1366 35.51 6.9124 35.3861C5.96839 35.3575 5.63464 35.0237 5.63464 34.0702C5.63464 24.6968 5.63464 15.3234 5.63464 5.94995C5.63464 4.92965 6.00653 4.60545 7.03636 4.64359C9.75398 4.74848 12.4239 5.1299 15.0557 5.84506C15.3227 5.92135 15.4658 6.02624 15.542 6.29323C16.0093 7.83799 16.9342 9.06807 18.2883 9.95487C18.5267 10.1074 18.6029 10.2695 18.5934 10.5461C18.5934 14.8371 18.5839 19.128 18.5934 23.4095C18.5934 23.7432 18.4599 23.8958 18.212 24.0579C14.579 26.5085 14.2071 31.753 17.4491 34.69C18.0499 35.2335 18.7078 35.4719 19.4993 35.1954C20.2526 34.9284 20.7007 34.2609 20.7198 33.3836C20.7294 32.7161 20.758 32.0486 20.7198 31.3907C20.6912 30.933 20.8533 30.6469 21.292 30.4371H21.2824ZM12.7386 13.0634C11.5371 13.0634 10.3356 13.0634 9.13418 13.0634C8.57158 13.0634 8.24737 13.3114 8.24737 13.7309C8.24737 14.16 8.56205 14.4175 9.12464 14.4175C11.5276 14.4175 13.921 14.4175 16.3239 14.4175C16.8865 14.4175 17.2108 14.16 17.2203 13.7405C17.2203 13.3209 16.8865 13.0634 16.3335 13.0634C15.132 13.0634 13.9305 13.0634 12.7291 13.0634H12.7386ZM12.7291 21.4547C13.9305 21.4547 15.132 21.4547 16.3335 21.4547C16.8865 21.4547 17.2203 21.1972 17.2203 20.7777C17.2203 20.3581 16.8865 20.1007 16.3335 20.0911C13.9305 20.0911 11.5371 20.0911 9.13418 20.0911C8.57158 20.0911 8.24737 20.3486 8.25691 20.7777C8.25691 21.2068 8.57158 21.4452 9.14371 21.4452C10.3452 21.4452 11.5467 21.4452 12.7481 21.4452L12.7291 21.4547ZM12.7481 17.9456C13.9305 17.9456 15.1129 17.9456 16.2953 17.9456C16.877 17.9456 17.2298 17.6786 17.2203 17.2495C17.2108 16.8395 16.877 16.582 16.3239 16.582C13.9401 16.582 11.5562 16.582 9.17232 16.582C8.58112 16.582 8.24737 16.8395 8.25691 17.2781C8.25691 17.7072 8.59065 17.9456 9.20092 17.9456C10.3833 17.9456 11.5657 17.9456 12.7481 17.9456Z" fill="#323B60"/>
<path d="M22.6936 39.0387V30.4472C23.075 30.6283 23.3134 30.8286 23.2848 31.2863C23.2467 31.9538 23.2848 32.6213 23.2753 33.2888C23.2753 34.1469 23.5899 34.824 24.4005 35.1672C25.2014 35.5201 25.9071 35.2817 26.546 34.7095C29.7785 31.7917 29.4352 26.5758 25.8403 24.1061C25.5161 23.8867 25.4208 23.6579 25.4208 23.286C25.4303 19.0618 25.4303 14.8375 25.4208 10.6133C25.4208 10.3082 25.497 10.1175 25.764 9.94582C27.0799 9.07809 27.9858 7.86708 28.4531 6.36047C28.5484 6.06487 28.6914 5.93137 28.9966 5.84555C31.6856 5.11132 34.4318 4.73944 37.2067 4.64408C37.9027 4.61547 38.3604 4.99689 38.3604 5.66438C38.37 7.80987 38.3604 9.95536 38.3604 12.1008C38.3604 12.1485 38.3414 12.1962 38.3414 12.1771C37.8741 12.406 37.445 12.6158 36.9683 12.8446C36.9301 12.6921 36.892 12.5395 36.8634 12.3869C36.6631 11.481 36.0624 10.9375 35.1374 10.8898C34.6035 10.8612 34.0599 10.8612 33.5355 10.9089C32.6677 10.9757 32.0479 11.5955 31.924 12.4632C31.9049 12.5967 31.8572 12.7207 31.8477 12.7493C31.266 12.5872 30.7606 12.3297 30.2457 12.3106C29.1778 12.2725 27.49 14.0175 27.5758 15.0759C27.6139 15.5622 27.8905 16.0295 28.0716 16.5635C27.9667 16.5921 27.8046 16.6302 27.6425 16.6684C26.7748 16.84 26.1931 17.5266 26.1836 18.4134C26.1836 18.852 26.1836 19.2906 26.1836 19.7293C26.1931 20.7686 26.7653 21.4266 27.7951 21.5982C27.9 21.6173 28.0049 21.6554 28.1861 21.7031C28.0907 21.8557 28.024 21.9701 27.9477 22.0845C27.3946 22.8664 27.4328 23.7342 28.0812 24.4398C28.3672 24.7545 28.6724 25.0405 28.9775 25.3361C29.769 26.1085 30.6367 26.1657 31.5235 25.5268C31.5998 25.4696 31.6761 25.422 31.8191 25.3266C31.8668 25.5078 31.9144 25.6317 31.9335 25.7652C32.0575 26.6711 32.725 27.2909 33.6308 27.3386C34.0981 27.3577 34.5749 27.3577 35.0421 27.3386C36.0433 27.31 36.6727 26.776 36.8824 25.7938C36.911 25.6603 36.9397 25.5268 36.9683 25.3743C37.445 25.6031 37.8741 25.8129 38.3509 26.0513C38.3509 26.1085 38.37 26.2325 38.37 26.366C38.37 28.9692 38.37 31.5628 38.37 34.166C38.37 35.0051 38.0076 35.3675 37.1494 35.3961C32.1814 35.5391 27.4518 36.6357 23.0178 38.9052C22.932 38.9433 22.8462 38.9815 22.6936 39.0482V39.0387Z" fill="#323B60"/>
<path d="M21.3109 45.9902C21.0726 45.8757 20.8818 45.7899 20.7007 45.6946C16.6958 43.6158 12.4429 42.2522 7.9803 41.6324C5.93016 41.3464 3.85142 41.2319 1.78221 41.0603C0.962161 40.9935 0.637953 40.7075 0.637953 39.8874C0.628418 30.3328 0.628418 20.7783 0.628418 11.2237C0.628418 10.4132 1.01937 10.0413 1.83943 10.0699C2.63088 10.0985 3.42232 10.1462 4.27098 10.1939C4.27098 10.4418 4.27098 10.6516 4.27098 10.8518C4.27098 18.5851 4.27098 26.3184 4.27098 34.0517C4.27098 35.3867 4.85265 36.2925 5.94923 36.5977C6.33065 36.7026 6.75022 36.7216 7.15071 36.7407C12.052 36.9219 16.6958 38.0948 21.0249 40.45C21.1393 40.5168 21.2919 40.6693 21.2919 40.7742C21.3109 42.4906 21.3014 44.207 21.3014 45.9902H21.3109Z" fill="#323B60"/>
<path d="M40.6395 16.5346C40.7062 16.4011 40.7253 16.3248 40.773 16.258C41.469 15.2282 41.4404 14.4177 40.506 13.5881C39.8862 13.0255 39.5906 12.4343 39.705 11.6047C39.7622 11.1565 39.7145 10.6988 39.7145 10.1839C40.6776 10.1458 41.593 10.079 42.518 10.0981C43.0138 10.0981 43.3189 10.5081 43.3571 11.0135C43.3666 11.1756 43.3571 11.3377 43.3571 11.4998C43.3571 20.8923 43.3571 30.2848 43.3571 39.6677C43.3571 39.9728 43.338 40.297 43.2236 40.564C43.0519 40.9645 42.661 41.0504 42.2414 41.0599C39.3617 41.1457 36.5106 41.4318 33.6976 42.023C30.0169 42.7953 26.4888 44.0159 23.1513 45.7609C23.0083 45.8372 22.8653 45.8944 22.6746 45.9802C22.6746 44.1971 22.6746 42.4711 22.6841 40.7547C22.6841 40.6499 22.8081 40.5068 22.9129 40.4496C26.7462 38.3804 30.837 37.1885 35.1756 36.8357C35.8717 36.7784 36.5678 36.7498 37.2639 36.7022C38.8754 36.5782 39.6954 35.6914 39.705 34.0799C39.705 31.3813 39.705 28.6828 39.705 25.9938C39.705 25.5838 39.7813 25.2786 40.115 25.0212C40.3153 24.8591 40.4869 24.6588 40.6681 24.4776C41.3642 23.7625 41.4309 22.8661 40.8588 22.0461C40.792 21.9507 40.7348 21.8363 40.6395 21.6837C40.8111 21.636 40.9351 21.5884 41.0495 21.5693C41.9458 21.4167 42.5275 20.8637 42.6228 19.9673C42.6801 19.3857 42.6801 18.7945 42.6228 18.2128C42.5275 17.3355 41.9744 16.792 41.0972 16.6204C40.9732 16.5918 40.8492 16.5632 40.649 16.525L40.6395 16.5346Z" fill="#323B60"/>
<path d="M30.3411 13.5781C30.5032 13.6735 30.6462 13.7498 30.7702 13.8356C31.781 14.5794 33.0587 14.0549 33.2208 12.8248C33.278 12.3957 33.4592 12.1764 33.9074 12.1955C34.2602 12.2146 34.6226 12.1955 34.9754 12.1955C35.3186 12.1955 35.4903 12.3576 35.538 12.7199C35.7191 14.0549 36.9778 14.5984 38.0458 13.7974C38.37 13.5495 38.6275 13.5686 38.8945 13.8547C39.0089 13.9691 39.1233 14.0835 39.2377 14.1979C39.6954 14.6556 39.7749 15.1674 39.4761 15.7332C38.9898 16.6581 39.581 17.8214 40.6395 17.9263C41.1544 17.974 41.3069 18.2124 41.2879 18.6796C41.2688 19.0038 41.2783 19.328 41.2879 19.6523C41.2879 20.0337 41.1162 20.2435 40.7444 20.253C39.3998 20.3007 38.8945 21.9598 39.705 22.7704C39.972 23.0374 39.9338 23.3139 39.6668 23.5713C39.3998 23.8288 39.1329 24.0958 38.8754 24.3628C38.6275 24.6107 38.3605 24.6679 38.103 24.4105C37.2448 23.5618 35.6047 24.0958 35.5189 25.4975C35.5094 25.6692 35.2328 25.8885 35.0326 25.9648C34.8228 26.0506 34.5558 25.9838 34.3079 25.9838C33.7103 25.9838 33.3416 25.6946 33.2018 25.1161C32.9634 24.1149 31.7238 23.6762 30.856 24.277C30.2839 24.6775 30.2553 24.6775 29.7594 24.1816C29.6927 24.1149 29.6259 24.0481 29.5497 23.9718C29.0856 23.5078 29.003 22.996 29.3017 22.4366C29.7976 21.5021 29.2064 20.3579 28.1479 20.253C27.6807 20.2053 27.4805 20.0051 27.4995 19.5474C27.5186 19.1945 27.4995 18.8322 27.4995 18.4794C27.4995 18.1361 27.6807 17.9645 28.0335 17.9168C29.3685 17.7547 29.8929 16.4865 29.0729 15.4089C28.844 15.1038 28.844 14.8654 29.1206 14.5984C29.3876 14.341 29.645 14.0644 29.9215 13.807C30.036 13.7021 30.179 13.6353 30.3316 13.54L30.3411 13.5781ZM37.693 19.0992C37.693 17.297 36.215 15.8094 34.4223 15.7904C32.6106 15.7713 31.1135 17.2684 31.104 19.0992C31.104 20.93 32.601 22.4271 34.4223 22.3985C36.2245 22.3794 37.693 20.8919 37.693 19.0897V19.0992Z" fill="#323B60"/>
</g>
<defs>
<clipPath id="clip0_23_566">
<rect width="42.7382" height="45.9898" fill="white" transform="translate(0.628418)"/>
</clipPath>
</defs>
</svg>
