<svg width="53" height="52" viewBox="0 0 53 52" fill="none" xmlns="http://www.w3.org/2000/svg">
<g clip-path="url(#clip0_23_499)">
<path d="M5.59521 41.5456C5.72931 40.6963 6.25825 40.1078 6.83934 39.5118C8.73906 37.5748 9.75225 35.2058 10.08 32.5313C10.3184 30.557 10.2439 28.5903 9.72245 26.6757C9.45425 25.6997 9.34995 24.7536 9.67775 23.8C9.94594 23.0178 10.2737 22.2653 10.5792 21.498C10.6313 21.3713 10.6909 21.2522 10.758 21.0883C10.4674 20.8946 10.1843 20.7083 9.88634 20.5146C10.0875 20.1347 10.2812 19.7696 10.4898 19.3673C10.7803 19.5461 11.0634 19.71 11.354 19.8888C11.4061 19.8218 11.4657 19.7622 11.503 19.6951C12.3821 18.1828 13.507 16.8642 14.766 15.6647C14.8927 15.5455 15.1311 15.471 15.295 15.4934C16.6136 15.6871 17.664 16.4023 18.6176 17.2888C19.1614 17.788 19.7723 18.0338 20.5024 17.8401C21.9402 17.4602 22.4394 15.7392 21.4113 14.6665C21.0016 14.2418 20.5397 13.8768 20.1001 13.4894C21.7614 13.3329 23.4451 15.0613 23.2514 16.7152C23.1397 17.6613 22.7895 18.4957 22.1265 19.1885C21.8657 19.4567 21.7764 19.7473 21.7913 20.1123C21.8881 22.5782 22.8864 24.6567 24.5254 26.4522C25.0468 27.0258 25.3448 27.6218 25.017 28.4189C25.1288 28.4934 25.2405 28.5754 25.3523 28.6424C28.1907 30.4155 31.0291 32.1811 33.8601 33.9691C34.1059 34.1255 34.2847 34.1255 34.538 34.0063C35.8119 33.4178 36.922 33.753 37.652 34.9599C37.9873 35.5112 38.33 36.0104 38.9483 36.2935C39.2314 36.4201 39.4624 36.6659 39.7008 36.8745C40.2371 37.3439 40.8331 37.7015 41.526 37.8803C42.0847 38.0293 42.5392 38.3422 42.8074 38.8488C43.4629 40.0854 44.5134 40.7857 45.8246 41.1657C46.7185 41.4264 47.3965 41.9852 47.9925 42.8419C47.6796 43.0207 47.3965 43.2665 47.0761 43.3336C45.9587 43.5645 44.8412 43.8178 43.7088 43.9221C38.9632 44.3542 34.2102 44.2946 29.4572 44.0786C27.4234 43.9817 25.397 43.7433 23.3781 43.5198C22.6629 43.4379 22.648 43.3336 22.9236 42.6706C23.2216 41.9405 23.7357 41.3892 24.4211 41.0241C24.9872 40.7187 25.5832 40.4579 26.1941 40.2493C26.9168 39.996 27.4755 39.5714 27.9002 38.9456C28.064 38.7072 28.2205 38.4614 28.3695 38.2155C28.7345 37.6121 29.1666 37.1502 29.9563 37.1353C30.232 37.1353 30.5449 36.9565 30.7758 36.7851C31.5282 36.2264 32.2509 35.6379 33.0182 35.027C32.8692 34.9227 32.7798 34.8482 32.6755 34.7811C29.852 33.0155 27.0285 31.2499 24.1976 29.4917C24.0262 29.38 23.7878 29.38 23.5867 29.3055C23.2216 29.1639 22.7448 29.1043 22.5362 28.8361C21.8136 27.9198 20.8228 27.3834 19.8766 26.78C19.1242 26.3032 18.3643 25.8338 17.6119 25.3719C17.5672 25.3943 17.5374 25.4017 17.5225 25.4241C17.1053 26.102 17.0978 26.1095 17.6789 26.6459C19.4743 28.3221 20.86 30.2591 21.5454 32.643C22.3947 35.6081 21.9551 38.4539 20.6738 41.188C20.2566 42.082 19.7425 42.9387 19.2136 43.7731C18.4537 44.9651 16.9935 45.278 15.8611 44.5405C14.7139 43.7955 14.4084 42.3353 15.1832 41.1284C16.0474 39.7875 16.7849 38.4018 17.0457 36.8075C17.4331 34.498 16.6359 32.576 15.064 30.8625C14.9895 31.7043 14.9448 32.494 14.8405 33.2763C14.319 37.2619 12.6577 40.6889 9.72245 43.4602C9.02216 44.1158 8.18777 44.317 7.27889 44.0115C6.3849 43.7135 5.84851 43.0728 5.66971 42.1416C5.65481 42.0746 5.61756 42.015 5.59521 41.9554C5.59521 41.8213 5.59521 41.6797 5.59521 41.5456ZM19.9288 25.2527C19.6233 24.4481 19.3626 23.7553 19.0795 23.0029C18.7889 23.4275 18.5282 23.8075 18.2526 24.2098C18.8113 24.5524 19.3253 24.8802 19.9288 25.2527Z" fill="#323B60"/>
<path d="M27.1775 7.06738C27.4904 7.14933 27.8182 7.21638 28.1236 7.32068C30.1351 7.98372 31.3867 10.0473 31.0365 12.1184C30.6864 14.2193 28.8835 15.7539 26.7678 15.7614C24.4359 15.7614 22.5809 14.0628 22.417 11.6714C22.2531 9.36195 23.9815 7.44733 26.0824 7.14933C26.142 7.14188 26.2016 7.09718 26.2686 7.07483C26.5741 7.07483 26.8721 7.07483 27.1775 7.07483V7.06738Z" fill="#323B60"/>
<path d="M5.59521 17.7355C5.83361 17.4077 6.06456 17.0873 6.3104 16.7446C6.60095 16.9309 6.89149 17.1097 7.19694 17.3034C7.00324 17.7057 6.82444 18.0856 6.6382 18.473C6.2806 18.2719 5.93791 18.0856 5.59521 17.8994C5.59521 17.8472 5.59521 17.7876 5.59521 17.7355Z" fill="#323B60"/>
<path d="M14.7884 11.9546C16.6137 11.9844 18.2228 12.6474 19.683 13.6904C20.1747 14.0406 20.644 14.4279 21.0761 14.8526C21.7317 15.4858 21.7392 16.4469 21.1432 17.0727C20.5397 17.6984 19.6085 17.691 18.9231 17.0652C17.9621 16.1787 16.9042 15.4486 15.6005 15.1655C14.252 14.8675 13.1346 15.3219 12.1735 16.2457C11.2721 17.1025 10.6463 18.1529 10.1099 19.2629C9.99072 19.5088 9.88642 19.7621 9.74487 20.0005C9.34258 20.6709 8.50819 20.9317 7.80045 20.6262C7.07781 20.3059 6.65317 19.4641 6.95862 18.7414C7.87495 16.5735 9.06693 14.5918 11.0337 13.1987C12.1512 12.4016 13.4102 12.0142 14.781 11.9769L14.7884 11.9546Z" fill="#323B60"/>
</g>
<defs>
<clipPath id="clip0_23_499">
<rect width="42.4047" height="37.8603" fill="white" transform="translate(5.59521 7.06738)"/>
</clipPath>
</defs>
</svg>
