<svg width="53" height="52" viewBox="0 0 53 52" fill="none" xmlns="http://www.w3.org/2000/svg">
<g clip-path="url(#clip0_23_463)">
<path d="M48.0001 22.497C47.64 23.3725 46.9854 23.6753 46.0444 23.6753C32.7804 23.6589 19.5165 23.6507 6.26066 23.6753C5.12328 23.6753 4.30503 22.9225 4.40322 21.8342C4.46049 21.2369 4.46049 20.6313 4.40322 20.034C4.30503 18.9703 5.09874 18.1848 6.26066 18.1929C12.6513 18.2338 19.0337 18.2093 25.4243 18.2093C32.2977 18.2093 39.171 18.2175 46.0444 18.1929C46.9936 18.1929 47.64 18.4957 48.0001 19.3712V22.4806V22.497Z" fill="#323B60"/>
<path d="M31.5612 6.54127C31.9376 6.91767 32.3304 7.2777 32.6986 7.67046C33.7542 8.79148 34.7933 9.92068 35.898 11.1072C35.7098 11.1808 35.5789 11.2463 35.4316 11.2872C34.2206 11.6881 33.0095 12.0972 31.7903 12.4655C31.1275 12.67 30.8166 13.2019 30.522 13.7256C30.342 14.0447 30.4811 14.3966 30.8084 14.6093C31.1521 14.8302 31.5449 14.8466 31.7658 14.5029C32.1422 13.922 32.7232 13.7747 33.3041 13.5865C34.6706 13.1364 36.0371 12.6782 37.4036 12.2445C37.5672 12.1873 37.7964 12.1791 37.9518 12.2445C39.081 12.7764 40.202 13.3165 41.2985 13.8974C41.5849 14.0447 41.8386 14.3065 42.0349 14.5684C42.5177 15.2148 42.9514 15.894 43.4423 16.6059H21.8894C21.914 16.5404 21.9221 16.4586 21.963 16.4013C22.9122 15.1903 23.2723 13.7501 23.5914 12.2936C23.8041 11.3117 24.0578 10.3462 24.2787 9.36426C24.3524 9.02877 24.516 8.86512 24.8515 8.75057C26.7662 8.09596 28.6646 7.40862 30.5629 6.72947C30.7102 6.68037 30.8412 6.59036 30.9803 6.5249C31.1766 6.5249 31.373 6.5249 31.5612 6.5249V6.54127Z" fill="#323B60"/>
<path d="M20.4656 6.54102C21.1611 7.16289 21.8484 7.80113 22.5685 8.40665C22.8221 8.61939 22.8549 8.82396 22.7812 9.11853C22.3885 10.6814 22.0366 12.2606 21.6111 13.8153C21.4802 14.2981 21.1611 14.74 20.9074 15.1818C20.621 15.6728 20.4083 16.3274 19.9746 16.5647C19.5164 16.8102 18.8454 16.6547 18.2644 16.6547C15.1714 16.6547 12.0784 16.6547 8.98539 16.6547C8.80537 16.6547 8.63354 16.6547 8.38806 16.6547C8.78083 15.6646 9.14086 14.7154 9.53362 13.7826C9.60727 13.6108 9.82001 13.4799 9.99185 13.3735C11.2847 12.5716 12.5857 11.7779 13.8704 10.9678C14.075 10.8369 14.2632 10.6323 14.3777 10.4196C14.8687 9.5113 15.3514 8.59485 15.7933 7.65385C16.0224 7.16289 16.3825 6.99106 16.8898 6.93378C17.7817 6.82741 18.6818 6.67194 19.59 6.54102C19.8846 6.54102 20.171 6.54102 20.4656 6.54102Z" fill="#323B60"/>
<path d="M8.28178 35.5895C7.64354 32.1119 7.01348 28.6998 6.38342 25.2549H46.0199C45.3898 28.6834 44.7679 32.1037 44.1297 35.5813C41.6586 32.922 38.7701 32.3083 35.5789 33.7893C32.6823 35.1313 31.5449 37.6106 31.6676 40.7527H20.7439C20.8912 37.4306 19.5492 34.9431 16.4889 33.6339C13.3877 32.3083 10.6384 33.0529 8.28997 35.5895H8.28178Z" fill="#323B60"/>
<path d="M38.6145 45.4491C35.6606 45.4491 33.2058 42.9944 33.2058 40.0323C33.2058 36.9392 35.6197 34.5581 38.7536 34.5581C41.6748 34.5581 44.0968 36.9801 44.0968 39.9095C44.0968 43.0271 41.6993 45.4409 38.6145 45.4409V45.4491ZM39.4246 40.0159C39.4328 39.5904 39.0809 39.2304 38.6636 39.2304C38.2627 39.2304 37.9272 39.5577 37.9026 39.9668C37.8781 40.3841 38.2217 40.7605 38.639 40.7769C39.0564 40.7932 39.4164 40.4414 39.4246 40.0159Z" fill="#323B60"/>
<path d="M19.1973 40.0077C19.1973 43.0516 16.808 45.4328 13.7722 45.4328C10.6629 45.4328 8.30627 43.068 8.30627 39.9504C8.30627 36.9638 10.7774 34.5581 13.8295 34.5581C16.7753 34.5581 19.2055 37.0292 19.1973 40.0077ZM13.7395 39.2304C13.3222 39.2385 12.9785 39.6149 12.9949 40.0323C13.0113 40.4414 13.3467 40.7687 13.7477 40.7769C14.165 40.7769 14.5169 40.425 14.5169 39.9995C14.5169 39.574 14.1568 39.2222 13.7395 39.2304Z" fill="#323B60"/>
</g>
<defs>
<clipPath id="clip0_23_463">
<rect width="43.605" height="38.9082" fill="white" transform="translate(4.39502 6.54102)"/>
</clipPath>
</defs>
</svg>
