<svg width="53" height="52" viewBox="0 0 53 52" fill="none" xmlns="http://www.w3.org/2000/svg">
<g clip-path="url(#clip0_23_520)">
<path d="M41.2308 16.0895C28.4686 16.0895 15.7065 16.0895 2.94432 16.0895C2.76419 16.0895 2.58406 16.0715 2.40393 16.0625V35.5075C2.43095 35.5705 2.46698 35.6245 2.48499 35.6876C3.07041 38.5066 4.99779 40.0918 7.86185 40.0918C14.3285 40.0918 20.7861 40.0918 27.2528 40.0918H27.8202C27.9283 36.309 29.2972 33.1298 32.0982 30.635C34.8903 28.1402 38.2046 27.1585 41.9153 27.4737V16.0985H41.2398L41.2308 16.0895ZM15.1121 32.1751C15.103 32.7064 14.8148 33.0127 14.2925 33.0217C13.4369 33.0397 12.5812 33.0397 11.7256 33.0217C11.2213 33.0217 10.9331 32.7155 10.924 32.2111C10.915 31.3555 10.915 30.4999 10.924 29.6442C10.924 29.1219 11.2032 28.8427 11.7166 28.8337C12.5902 28.8157 13.4639 28.8157 14.3375 28.8337C14.8419 28.8427 15.103 29.1399 15.1211 29.6533C15.1301 30.0766 15.1211 30.5089 15.1211 30.9412C15.1211 31.3735 15.1211 31.7608 15.1211 32.1751H15.1121ZM15.1121 22.4751C15.1121 22.8714 15.1121 23.2677 15.1121 23.664C15.1121 24.2314 14.8419 24.5466 14.2925 24.5646C13.4369 24.5916 12.5812 24.5916 11.7256 24.5646C11.1852 24.5466 10.9331 24.2494 10.924 23.7C10.915 22.8624 10.915 22.0158 10.924 21.1782C10.924 20.6648 11.2032 20.3676 11.7076 20.3496C12.5812 20.3226 13.4549 20.3226 14.3285 20.3496C14.8238 20.3676 15.094 20.6828 15.1121 21.1872C15.1211 21.6195 15.1121 22.0428 15.1121 22.4751ZM19.3631 21.2232C19.3631 20.6648 19.6603 20.3586 20.2097 20.3406C21.0473 20.3226 21.8939 20.3226 22.7315 20.3406C23.2719 20.3496 23.5421 20.6378 23.5601 21.1782C23.5601 21.3493 23.5601 21.5114 23.5601 21.6825C23.5601 21.9437 23.5601 22.2049 23.5601 22.4661C23.5601 22.5922 23.5601 22.7273 23.5601 22.8534C23.5601 23.0605 23.5601 23.2677 23.5601 23.4658C23.5601 23.5469 23.5601 23.6189 23.5601 23.7C23.5421 24.2494 23.2899 24.5376 22.7495 24.5556C21.8939 24.5826 21.0383 24.5826 20.1827 24.5556C19.6513 24.5376 19.3721 24.2224 19.3721 23.691C19.3631 22.8714 19.3631 22.0428 19.3721 21.2142L19.3631 21.2232ZM23.5601 32.2471C23.5511 32.7245 23.2539 33.0127 22.7766 33.0217C21.9029 33.0397 21.0203 33.0397 20.1467 33.0217C19.6783 33.0127 19.3901 32.6974 19.3631 32.2291C19.3631 32.148 19.3631 32.076 19.3631 31.9949C19.3631 31.9499 19.3631 31.9049 19.3631 31.8598C19.3631 31.8148 19.3631 31.7608 19.3631 31.7157C19.3631 31.4365 19.3631 31.1663 19.3631 30.8871C19.3631 30.7611 19.3631 30.635 19.3631 30.5089C19.3631 30.2207 19.3631 29.9325 19.3631 29.6442C19.3811 29.1309 19.6603 28.8427 20.1647 28.8337C21.0383 28.8157 21.9209 28.8157 22.7946 28.8337C23.2809 28.8427 23.5511 29.1129 23.5601 29.6172C23.5781 30.4909 23.5781 31.3735 23.5601 32.2471ZM32.0532 23.6459C32.0442 24.2404 31.756 24.5466 31.1796 24.5646C30.36 24.5916 29.5314 24.5916 28.7028 24.5646C28.1174 24.5466 27.8382 24.2494 27.8202 23.655C27.8022 23.2407 27.8202 22.8354 27.8202 22.4211C27.8202 22.0068 27.8112 21.6285 27.8202 21.2322C27.8472 20.6378 28.1264 20.3496 28.7118 20.3406C29.5224 20.3226 30.324 20.3226 31.1346 20.3406C31.738 20.3496 32.0352 20.6558 32.0442 21.2682C32.0532 22.0608 32.0532 22.8534 32.0442 23.6459H32.0532Z" fill="#323B60"/>
<path d="M2.40393 9.91127C2.44896 9.72213 2.503 9.53299 2.54803 9.34386C3.11544 7.06522 5.02481 5.51611 7.3755 5.45307C7.98794 5.43505 8.59137 5.45307 9.28487 5.45307C9.28487 4.86765 9.26686 4.32726 9.28487 3.79588C9.29388 3.48966 9.31189 3.16542 9.41997 2.87722C9.63612 2.27378 10.3296 1.90452 10.9331 2.0216C11.5995 2.14769 12.0949 2.68808 12.1129 3.36357C12.1309 4.03905 12.1129 4.71454 12.1129 5.42605H20.7501C20.7501 4.78659 20.7501 4.15613 20.7501 3.53469C20.7501 2.67007 21.3175 2.03961 22.1191 2.0126C22.9207 1.97657 23.5601 2.60702 23.5961 3.48966C23.6232 4.12011 23.6232 4.74155 23.6322 5.37201C23.6322 5.38101 23.6502 5.39903 23.6862 5.43505H32.2153C32.2153 4.83162 32.2153 4.22819 32.2153 3.62475C32.2153 3.10238 32.3414 2.64305 32.7737 2.30981C33.2241 1.97657 33.7104 1.90452 34.2148 2.14769C34.6921 2.37285 35.0073 2.76013 35.0163 3.30052C35.0344 3.99402 35.0163 4.68752 35.0163 5.46207C35.6918 5.46207 36.3313 5.44406 36.9707 5.46207C39.2044 5.52512 41.1137 6.94814 41.6901 9.09168C41.8973 9.85723 41.8793 10.6948 41.9243 11.4964C41.9603 12.0728 41.9243 12.6492 41.9243 13.2977H2.40393C2.40393 12.1719 2.40393 11.0461 2.40393 9.92928V9.91127Z" fill="#323B60"/>
<path d="M50.3363 38.9751C49.7059 33.3821 44.5452 29.4553 38.9972 30.3379C34.584 31.0404 31.1706 34.598 30.7022 38.9751C30.2159 43.4783 32.7647 47.6934 36.9977 49.2965C37.8624 49.6297 38.808 49.7648 39.7087 49.99H41.3929C41.501 49.954 41.6091 49.9089 41.7171 49.8909C47.076 49.2695 50.9398 44.379 50.3273 38.9751H50.3363ZM44.6532 43.3793C44.4641 43.9016 44.0678 44.2619 43.5184 44.2709C43.1582 44.2709 42.6988 44.1628 42.4377 43.9287C41.4199 42.992 40.4382 42.0103 39.4925 40.9925C39.2584 40.7404 39.1323 40.3081 39.1233 39.9568C39.0872 38.1555 39.0963 36.3632 39.1143 34.5619C39.1143 33.6613 39.7267 33.0308 40.5283 33.0308C41.3299 33.0308 41.8973 33.6703 41.9063 34.5709C41.9063 35.3095 41.9063 36.057 41.9063 36.7955C41.9063 37.5521 41.8883 38.3176 41.9243 39.0742C41.9333 39.3083 42.0504 39.5875 42.2035 39.7587C42.906 40.5062 43.6445 41.2087 44.356 41.9472C44.7433 42.3525 44.8424 42.8479 44.6532 43.3703V43.3793Z" fill="#323B60"/>
</g>
<defs>
<clipPath id="clip0_23_520">
<rect width="47.9872" height="47.99" fill="white" transform="translate(2.40393 2)"/>
</clipPath>
</defs>
</svg>
