<svg width="53" height="52" viewBox="0 0 53 52" fill="none" xmlns="http://www.w3.org/2000/svg">
<g clip-path="url(#clip0_18_273)">
<path d="M27.6924 3.30541C28.0424 3.38541 28.3924 3.46541 28.7324 3.55541C31.9324 4.44541 33.9724 7.31541 33.8024 10.7154C33.6524 13.7554 31.1824 16.4554 28.0524 16.9854C23.7724 17.7154 19.8224 14.1854 20.0724 9.84541C20.2624 6.52541 22.6724 3.87541 25.9324 3.38541C26.0224 3.37541 26.1124 3.32541 26.2124 3.29541C26.7024 3.29541 27.2024 3.29541 27.6924 3.29541V3.30541Z" fill="white"/>
<path d="M2.63245 33.3953C2.87245 33.2853 3.10245 33.0853 3.34245 33.0853C4.79245 33.0553 6.23245 33.0753 7.68245 33.0753C7.86245 33.0753 8.03245 33.0753 8.26245 33.0753C8.26245 32.7953 8.26245 32.5653 8.26245 32.3453C8.28245 31.4353 8.95245 30.7553 9.85245 30.7453C11.4924 30.7353 13.1424 30.7353 14.7824 30.7453C15.7024 30.7453 16.3324 31.4253 16.3724 32.3953C16.3858 32.8486 16.6191 33.0753 17.0724 33.0753C18.4824 33.0753 19.9024 33.0753 21.3124 33.0753C21.9124 33.0753 22.0324 33.2353 21.9224 33.8353C21.8024 34.4953 21.6824 35.1553 21.5724 35.8253C21.4224 36.7553 20.9824 37.1453 20.0524 37.1553C18.4424 37.1553 16.8324 37.1553 15.2324 37.1553C14.8824 36.2153 14.6524 36.0553 13.6724 36.0553C12.7724 36.0553 11.8624 36.0553 10.9624 36.0553C9.99245 36.0553 9.75245 36.2253 9.43245 37.1553C8.43245 37.1553 7.42245 37.1553 6.40245 37.1553C5.73245 37.1553 5.05245 37.1653 4.38245 37.1553C3.74245 37.1453 3.26245 36.7353 3.13245 36.1053C2.96245 35.2753 2.80245 34.4453 2.63245 33.6153C2.63245 33.5453 2.63245 33.4853 2.63245 33.4153L2.63245 33.3953ZM9.71245 33.0353H14.9424C15.0091 32.4286 14.7658 32.1253 14.2124 32.1253C12.9424 32.1253 11.6824 32.1253 10.4124 32.1253C9.60245 32.1253 9.56245 32.1753 9.71245 33.0353Z" fill="white"/>
<path d="M23.2824 34.2456C23.2824 33.8556 23.3424 33.4756 23.2724 33.1156C23.1124 32.2656 22.4224 31.7256 21.5524 31.7156C20.4024 31.7156 19.2524 31.7156 18.1024 31.7156C17.8324 31.7156 17.6724 31.6656 17.5624 31.3656C17.0724 30.0556 16.0524 29.3656 14.6524 29.3556C13.8924 29.3556 13.1424 29.3556 12.3424 29.3556C12.3324 29.1956 12.3124 29.0456 12.3124 28.9056C12.3124 28.0856 12.3524 27.2556 12.3024 26.4356C12.2524 25.7356 12.4724 25.1856 12.9124 24.6556C14.5924 22.6356 16.5724 20.9856 18.9724 19.7956C19.0724 19.9456 19.1824 20.0856 19.2724 20.2356C20.5124 22.2356 21.7424 24.2356 22.9824 26.2256C23.4024 26.9056 23.7924 26.9556 24.3524 26.3956C25.1924 25.5456 26.0224 24.6756 26.9524 23.7156C27.7924 24.5856 28.5424 25.3856 29.3124 26.1656C30.1924 27.0556 30.4224 27.0156 31.0724 25.9556C32.2524 24.0556 33.4224 22.1556 34.6024 20.2556C34.6924 20.1056 34.7924 19.9556 34.9024 19.7856C37.0924 20.8756 38.9624 22.3256 40.6024 24.2256C39.6024 24.4856 39.0024 25.1956 38.3624 25.8656C38.1624 26.0756 37.6624 26.0656 37.3024 26.0356C36.2124 25.9656 35.2524 26.2456 34.4624 27.0056C33.5624 27.8756 33.1824 28.9356 33.3824 30.1856C33.4424 30.5956 33.4124 30.9556 33.0624 31.2056C32.0524 31.9456 31.4324 32.9056 31.4224 34.2256H23.3024L23.2824 34.2456Z" fill="white"/>
<path d="M34.7024 38.7355C34.7024 38.6555 34.7024 38.5255 34.7224 38.3955C34.8624 37.4355 34.5124 36.6955 33.7424 36.1355C32.9224 35.5255 32.5624 34.6955 32.8624 33.7155C33.0024 33.2655 33.3324 32.7955 33.6924 32.4955C34.4724 31.8555 34.8324 31.1155 34.7224 30.0955C34.5724 28.6555 35.2824 27.6755 36.5424 27.4455C36.7624 27.4055 37.0024 27.3955 37.2224 27.4355C38.2724 27.6455 39.0924 27.2955 39.7124 26.4455C40.1324 25.8755 40.6824 25.5455 41.4124 25.5055C42.2224 25.4655 42.8624 25.7655 43.3324 26.4055C43.9824 27.2855 44.8124 27.6155 45.9024 27.4355C47.1924 27.2155 48.3824 28.2955 48.3924 29.6055C48.3924 29.7655 48.3924 29.9355 48.3724 30.0955C48.2024 31.1155 48.5924 31.8755 49.4024 32.4855C50.1724 33.0555 50.5024 33.8555 50.2424 34.7855C50.1124 35.2355 49.8424 35.7155 49.4924 36.0055C48.6224 36.6955 48.2624 37.4855 48.3724 38.6055C48.5324 40.3055 47.4024 41.3255 45.6924 41.1155C44.7724 41.0055 44.0324 41.3055 43.4424 42.0355C42.3024 43.4655 40.7724 43.4655 39.6324 42.0355C39.0124 41.2655 38.2424 40.9855 37.2824 41.1255C35.7924 41.3355 34.6324 40.3055 34.6724 38.7455L34.7024 38.7355ZM37.3524 34.2555C37.3524 36.6055 39.2324 38.5055 41.5624 38.5055C43.8724 38.5055 45.7624 36.6155 45.7624 34.2955C45.7624 31.9555 43.8724 30.0455 41.5524 30.0455C39.2424 30.0455 37.3524 31.9355 37.3524 34.2555Z" fill="white"/>
<path d="M3.40243 38.4653H9.43243C9.61243 39.4653 10.2324 39.6853 11.0724 39.6453C11.9624 39.6053 12.8424 39.6453 13.7324 39.6453C14.6524 39.6453 14.9224 39.4453 15.2224 38.4753H21.2624C21.2624 39.7653 21.2624 41.1453 21.2624 42.5253C21.2624 43.3153 21.2624 44.1053 21.2624 44.8953C21.2624 45.6353 20.8724 46.0353 20.1424 46.0353C14.9324 46.0353 9.72243 46.0353 4.51243 46.0353C3.80243 46.0353 3.39243 45.6853 3.39243 45.0153C3.37243 42.8653 3.39243 40.7053 3.39243 38.5553C3.39243 38.5053 3.42243 38.4653 3.41243 38.4853L3.40243 38.4653Z" fill="white"/>
<path d="M38.2324 48.6854C37.7024 47.6854 37.2424 46.8054 36.7624 45.9054C35.7824 46.2154 34.8324 46.5054 33.7524 46.8354C34.4824 45.2854 35.1624 43.8354 35.8124 42.4654C36.4724 42.4654 37.0624 42.4854 37.6524 42.4654C38.0524 42.4454 38.3324 42.5754 38.5924 42.8754C38.8624 43.1954 39.1524 43.5254 39.4924 43.7654C39.8024 43.9854 39.8624 44.1654 39.7324 44.5154C39.2224 45.8654 38.7524 47.2154 38.2324 48.6754V48.6854Z" fill="white"/>
<path d="M47.3325 42.4656C47.9825 43.8456 48.6625 45.2756 49.3825 46.8056C48.3325 46.4856 47.3825 46.1956 46.3825 45.8856C45.9125 46.7856 45.4325 47.6656 44.9325 48.6256C44.8325 48.4056 44.7625 48.2556 44.7025 48.0956C44.2725 46.8956 43.8425 45.6856 43.4025 44.4956C43.2825 44.1856 43.2725 43.9856 43.6025 43.7756C43.9525 43.5456 44.2425 43.2056 44.5125 42.8856C44.7825 42.5656 45.0725 42.4256 45.4925 42.4556C46.0725 42.4956 46.6625 42.4556 47.3325 42.4556V42.4656Z" fill="white"/>
<path d="M33.6425 19.2354C32.4425 21.1754 31.2725 23.0654 30.1125 24.9454C29.4125 24.2154 28.7225 23.5054 28.0125 22.7754C29.2225 21.5254 30.5225 20.1754 31.8325 18.8454C31.9125 18.7654 32.0825 18.7154 32.1725 18.7354C32.6525 18.8854 33.1225 19.0554 33.6425 19.2454V19.2354Z" fill="white"/>
<path d="M20.2424 19.2356C20.7624 19.0556 21.2124 18.8856 21.6824 18.7456C21.7924 18.7156 21.9824 18.7656 22.0624 18.8456C23.3624 20.1656 24.6524 21.5056 25.8924 22.7856C25.1824 23.5156 24.4924 24.2356 23.7824 24.9556C22.6124 23.0656 21.4424 21.1756 20.2424 19.2356Z" fill="white"/>
<path d="M26.9425 21.9052C25.7725 20.7052 24.6425 19.5252 23.4425 18.2952C25.8125 17.8352 28.0725 17.8352 30.4425 18.2952C29.2425 19.5352 28.1125 20.7052 26.9425 21.9052Z" fill="white"/>
<path d="M13.7724 37.4253V38.2353H10.8624V37.4253H13.7724Z" fill="white"/>
</g>
<defs>
<clipPath id="clip0_18_273">
<rect width="47.73" height="45.39" fill="white" transform="translate(2.63245 3.29541)"/>
</clipPath>
</defs>
</svg>
