<svg width="32" height="33" viewBox="0 0 32 33" fill="none" xmlns="http://www.w3.org/2000/svg">
<path fill-rule="evenodd" clip-rule="evenodd" d="M16 4.98535C12.7408 4.98535 12.3328 4.99895 11.0528 5.05735C9.7752 5.11575 8.9024 5.31895 8.1392 5.61575C7.3392 5.91655 6.6136 6.38855 6.0136 6.99975C5.40338 7.59906 4.93109 8.32415 4.6296 9.12455C4.3344 9.88775 4.1304 10.7614 4.072 12.039C4.0144 13.3182 4 13.7254 4 16.9854C4 20.2454 4.0136 20.6526 4.072 21.9326C4.1304 23.2102 4.3336 24.083 4.6304 24.8462C4.9312 25.6462 5.4032 26.3718 6.0144 26.9718C6.61372 27.582 7.33881 28.0542 8.1392 28.3558C8.9024 28.6518 9.7752 28.855 11.0528 28.9134C12.3328 28.9718 12.7408 28.9854 16 28.9854C19.2592 28.9854 19.6672 28.9718 20.9472 28.9134C22.2248 28.855 23.0976 28.6518 23.8608 28.355C24.6608 28.0542 25.3864 27.5822 25.9864 26.971C26.5966 26.3716 27.0689 25.6466 27.3704 24.8462C27.6664 24.083 27.8696 23.2102 27.928 21.9326C27.9864 20.6526 28 20.2446 28 16.9854C28 13.7262 27.9864 13.3182 27.928 12.0382C27.8696 10.7606 27.6664 9.88775 27.3696 9.12455C27.0683 8.3238 26.596 7.59841 25.9856 6.99895C25.3863 6.38873 24.6612 5.91644 23.8608 5.61495C23.0976 5.31975 22.224 5.11575 20.9464 5.05735C19.6672 4.99975 19.26 4.98535 16 4.98535ZM16 7.14775C19.204 7.14775 19.584 7.15975 20.8496 7.21735C22.0192 7.27095 22.6544 7.46535 23.0776 7.63095C23.6376 7.84775 24.0376 8.10855 24.4576 8.52775C24.8776 8.94775 25.1376 9.34775 25.3544 9.90775C25.5192 10.331 25.7144 10.9662 25.768 12.1358C25.8256 13.4014 25.8376 13.7814 25.8376 16.9854C25.8376 20.1894 25.8256 20.5694 25.768 21.835C25.7144 23.0046 25.52 23.6398 25.3544 24.063C25.1623 24.5842 24.8559 25.0557 24.4576 25.443C24.0705 25.8413 23.5989 26.1478 23.0776 26.3398C22.6544 26.5046 22.0192 26.6998 20.8496 26.7534C19.584 26.811 19.2048 26.823 16 26.823C12.7952 26.823 12.416 26.811 11.1504 26.7534C9.9808 26.6998 9.3456 26.5054 8.9224 26.3398C8.40116 26.1477 7.92961 25.8413 7.5424 25.443C7.14414 25.0557 6.8377 24.5842 6.6456 24.063C6.4808 23.6398 6.2856 23.0046 6.232 21.835C6.1744 20.5694 6.1624 20.1894 6.1624 16.9854C6.1624 13.7814 6.1744 13.4014 6.232 12.1358C6.2856 10.9662 6.48 10.331 6.6456 9.90775C6.8624 9.34775 7.1232 8.94775 7.5424 8.52775C7.92955 8.12939 8.40113 7.82293 8.9224 7.63095C9.3456 7.46615 9.9808 7.27095 11.1504 7.21735C12.416 7.15975 12.796 7.14775 16 7.14775Z" fill="currentColor"/>
<path fill-rule="evenodd" clip-rule="evenodd" d="M15.9961 20.9891C15.4703 20.9891 14.9496 20.8855 14.4639 20.6843C13.9781 20.4831 13.5367 20.1881 13.1649 19.8163C12.7931 19.4445 12.4981 19.0031 12.2969 18.5173C12.0957 18.0315 11.9921 17.5109 11.9921 16.9851C11.9921 16.4593 12.0957 15.9386 12.2969 15.4528C12.4981 14.967 12.7931 14.5256 13.1649 14.1538C13.5367 13.782 13.9781 13.4871 14.4639 13.2859C14.9496 13.0846 15.4703 12.9811 15.9961 12.9811C17.058 12.9811 18.0765 13.4029 18.8274 14.1538C19.5783 14.9047 20.0001 15.9231 20.0001 16.9851C20.0001 18.047 19.5783 19.0654 18.8274 19.8163C18.0765 20.5672 17.058 20.9891 15.9961 20.9891ZM15.9961 10.8171C14.3603 10.8171 12.7914 11.4669 11.6347 12.6236C10.478 13.7804 9.82813 15.3492 9.82812 16.9851C9.82813 18.6209 10.478 20.1898 11.6347 21.3465C12.7914 22.5032 14.3603 23.1531 15.9961 23.1531C17.632 23.1531 19.2008 22.5032 20.3576 21.3465C21.5143 20.1898 22.1641 18.6209 22.1641 16.9851C22.1641 15.3492 21.5143 13.7804 20.3576 12.6236C19.2008 11.4669 17.632 10.8171 15.9961 10.8171ZM23.9585 10.7051C23.9585 11.0918 23.8049 11.4626 23.5315 11.736C23.2581 12.0095 22.8872 12.1631 22.5005 12.1631C22.1138 12.1631 21.743 12.0095 21.4696 11.736C21.1961 11.4626 21.0425 11.0918 21.0425 10.7051C21.0425 10.3184 21.1961 9.94754 21.4696 9.67411C21.743 9.40068 22.1138 9.24707 22.5005 9.24707C22.8872 9.24707 23.2581 9.40068 23.5315 9.67411C23.8049 9.94754 23.9585 10.3184 23.9585 10.7051Z" fill="currentColor"/>
</svg>
