<svg width="32" height="33" viewBox="0 0 32 33" fill="none" xmlns="http://www.w3.org/2000/svg">
<path d="M28 6.75006V27.2206C28 27.6887 27.8141 28.1375 27.4831 28.4685C27.1522 28.7994 26.7033 28.9854 26.2353 28.9854H5.76471C5.29668 28.9854 4.84782 28.7994 4.51687 28.4685C4.18592 28.1375 4 27.6887 4 27.2206V6.75006C4 6.28203 4.18592 5.83317 4.51687 5.50222C4.84782 5.17128 5.29668 4.98535 5.76471 4.98535H26.2353C26.7033 4.98535 27.1522 5.17128 27.4831 5.50222C27.8141 5.83317 28 6.28203 28 6.75006ZM11.0588 14.1618H7.52941V25.4559H11.0588V14.1618ZM11.3765 10.2795C11.3783 10.0125 11.3276 9.74777 11.2271 9.50041C11.1267 9.25305 10.9785 9.0279 10.791 8.83781C10.6036 8.64773 10.3805 8.49642 10.1346 8.39255C9.88861 8.28867 9.62462 8.23426 9.35765 8.23241H9.29412C8.7512 8.23241 8.23053 8.44808 7.84663 8.83198C7.46273 9.21588 7.24706 9.73656 7.24706 10.2795C7.24706 10.8224 7.46273 11.3431 7.84663 11.727C8.23053 12.1109 8.7512 12.3265 9.29412 12.3265C9.56111 12.3331 9.82678 12.287 10.0759 12.1909C10.3251 12.0947 10.5529 11.9504 10.7463 11.7662C10.9396 11.582 11.0948 11.3615 11.203 11.1173C11.3111 10.8731 11.3701 10.61 11.3765 10.343V10.2795ZM24.4706 18.5948C24.4706 15.1995 22.3106 13.8795 20.1647 13.8795C19.4621 13.8443 18.7626 13.9939 18.1358 14.3135C17.5091 14.633 16.9771 15.1113 16.5929 15.7006H16.4941V14.1618H13.1765V25.4559H16.7059V19.4489C16.6549 18.8337 16.8487 18.2231 17.2452 17.75C17.6417 17.2768 18.2089 16.9792 18.8235 16.9218H18.9576C20.08 16.9218 20.9129 17.6277 20.9129 19.4065V25.4559H24.4424L24.4706 18.5948Z" fill="#323B60"/>
</svg>
